<?xml version="1.0" encoding="UTF-8"?>
<svg version="1.1" xmlns="http://www.w3.org/2000/svg" width="512" height="512">
<path d="M0 0 C168.96 0 337.92 0 512 0 C512 168.96 512 337.92 512 512 C343.04 512 174.08 512 0 512 C0 343.04 0 174.08 0 0 Z " fill="#000000" transform="translate(0,0)"/>
<path d="M0 0 C2.29512889 1.48007429 4.61719343 2.63649974 7.0859375 3.80078125 C16.11301342 8.2149646 26.05049702 14.26534077 33.2109375 21.42578125 C33.58398438 23.65161133 33.58398438 23.65161133 33.2109375 26.42578125 C31.60726493 28.44338389 30.10507947 30.06916324 28.2421875 31.8125 C27.72845581 32.3144136 27.21472412 32.81632721 26.6854248 33.33345032 C25.03868882 34.93903657 23.37617772 36.52691322 21.7109375 38.11328125 C19.54729464 40.19298969 17.39210537 42.28111074 15.2421875 44.375 C14.71753906 44.88247772 14.19289063 45.38995544 13.65234375 45.91281128 C9.66467765 49.82710545 6.2482742 54.01100461 3.00976562 58.57348633 C0.778046 60.87153964 -0.61943421 61.25144853 -3.7890625 61.42578125 C-6.453125 59.87109375 -6.453125 59.87109375 -9.4140625 57.55078125 C-17.5937442 51.50840198 -26.4481084 47.36693738 -35.7890625 43.42578125 C-36.52302246 43.10383789 -37.25698242 42.78189453 -38.01318359 42.45019531 C-60.61409223 32.8056441 -86.78400945 35.53842564 -109.17431641 44.36621094 C-128.80995524 52.46823479 -149.07674694 66.381115 -159.44140625 85.46875 C-162.55080865 89.38525186 -165.49416056 90.29799362 -170.1640625 91.73828125 C-170.9065625 91.98900391 -171.6490625 92.23972656 -172.4140625 92.49804688 C-176.51094745 93.84799218 -180.50118828 94.84725854 -184.7890625 95.42578125 C-185.46090868 97.52829986 -186.12637218 99.63285888 -186.7890625 101.73828125 C-187.3459375 103.49591797 -187.3459375 103.49591797 -187.9140625 105.2890625 C-188.92341022 108.36464801 -188.92341022 108.36464801 -188.7890625 111.42578125 C-173.86691832 108.25510277 -159.28906929 103.88056259 -144.66796875 99.56738281 C-141.00280055 98.48704346 -137.33400054 97.41950309 -133.6640625 96.35546875 C-132.57230713 96.03876221 -131.48055176 95.72205566 -130.35571289 95.39575195 C-128.32896354 94.80798357 -126.3021144 94.22055912 -124.27514648 93.63354492 C-120.60438708 92.56499186 -116.96373766 91.48585682 -113.34765625 90.2421875 C-110.39050187 89.29860694 -107.87401511 89.27887874 -104.7890625 89.42578125 C-105.61137145 96.81732235 -106.91370295 104.10745048 -108.2265625 111.42578125 C-108.44376953 112.658125 -108.66097656 113.89046875 -108.88476562 115.16015625 C-110.68595398 125.24248385 -110.68595398 125.24248385 -111.8203125 129.52734375 C-113.22975935 134.87513905 -113.99508636 140.34278124 -114.8515625 145.80078125 C-115.02494141 146.87328125 -115.19832031 147.94578125 -115.37695312 149.05078125 C-116.15850042 153.97363086 -116.86535489 158.87111751 -117.31640625 163.8359375 C-117.65609862 167.51156423 -118.28685016 170.92541638 -119.2890625 174.48828125 C-120.42101083 178.76999884 -121.15198382 182.84758913 -121.55078125 187.25 C-121.79676746 189.49613638 -122.20071982 191.65204425 -122.6640625 193.86328125 C-123.65000078 198.57387523 -124.45002663 203.30233207 -125.2265625 208.05078125 C-126.23610511 214.16066404 -127.25606899 220.26814932 -128.3515625 226.36328125 C-128.57972656 227.65105469 -128.80789062 228.93882812 -129.04296875 230.265625 C-129.7890625 233.42578125 -129.7890625 233.42578125 -131.7890625 236.42578125 C-132.29817565 238.05662171 -132.75027274 239.70568816 -133.1640625 241.36328125 C-138.15214407 260.04413577 -146.28008241 274.74550354 -158.7890625 289.42578125 C-159.66111328 290.46992187 -159.66111328 290.46992187 -160.55078125 291.53515625 C-168.72483944 300.51220756 -180.49853729 306.04832712 -191.4140625 310.91796875 C-194.73594769 312.33557028 -194.73594769 312.33557028 -197.5390625 313.99609375 C-205.82388318 317.64061823 -214.8058582 317.75943967 -223.7265625 317.67578125 C-224.78198242 317.66828857 -225.83740234 317.6607959 -226.92480469 317.65307617 C-244.39787319 317.41122037 -261.1231351 313.05085492 -274.0390625 300.55078125 C-275.30898373 299.19415858 -276.56012636 297.81963955 -277.7890625 296.42578125 C-278.58957031 295.53632812 -278.58957031 295.53632812 -279.40625 294.62890625 C-286.32526827 286.24004472 -290.01315233 276.16809753 -290.7890625 265.42578125 C-288.60394756 263.96903796 -286.41882079 262.51231245 -284.23364258 261.05566406 C-282.34265476 259.79489636 -280.45186932 258.53382507 -278.5612793 257.27246094 C-273.86449714 254.13943328 -269.16523628 251.01037206 -264.45703125 247.89453125 C-263.63702637 247.35086914 -262.81702148 246.80720703 -261.97216797 246.24707031 C-260.41644143 245.2159008 -258.85951288 244.186542 -257.30126953 243.15917969 C-256.60243652 242.69543945 -255.90360352 242.23169922 -255.18359375 241.75390625 C-254.57362549 241.35075195 -253.96365723 240.94759766 -253.33520508 240.53222656 C-251.62977161 239.37551049 -251.62977161 239.37551049 -249.7890625 237.42578125 C-247.6640625 237.80078125 -247.6640625 237.80078125 -245.7890625 238.42578125 C-245.73298828 239.62074219 -245.73298828 239.62074219 -245.67578125 240.83984375 C-245.07212068 250.56943183 -242.64898876 256.49439743 -235.7890625 263.42578125 C-234.7990625 264.08578125 -233.8090625 264.74578125 -232.7890625 265.42578125 C-232.7890625 266.08578125 -232.7890625 266.74578125 -232.7890625 267.42578125 C-231.3659375 267.39484375 -231.3659375 267.39484375 -229.9140625 267.36328125 C-226.7890625 267.42578125 -226.7890625 267.42578125 -224.7890625 268.42578125 C-215.30213783 269.48897108 -207.04878667 266.93867284 -199.578125 261.12109375 C-188.41514063 250.54306926 -185.66978299 236.80514932 -183.296875 222.31884766 C-182.58964294 218.28966503 -181.71131348 214.30410664 -180.83618164 210.30859375 C-178.91041786 201.51149776 -177.34963794 192.85994072 -176.52905273 183.89233398 C-175.92188791 177.67226771 -174.66547455 171.68196401 -173.19702148 165.61181641 C-172.05993208 160.88885984 -171.31565873 156.25743737 -170.7890625 151.42578125 C-181.88420352 154.25986619 -192.87073503 157.27428381 -203.77148438 160.78320312 C-205.94493477 161.47542499 -208.12385593 162.14781656 -210.3046875 162.81640625 C-211.04436768 163.04392578 -211.78404785 163.27144531 -212.54614258 163.50585938 C-213.97244261 163.94408211 -215.399342 164.38036002 -216.8269043 164.81445312 C-220.07018801 165.63571617 -220.07018801 165.63571617 -222.7890625 167.42578125 C-228.38068559 168.79690722 -234.08401214 169.68164425 -239.7890625 170.42578125 C-242.96962085 164.41661157 -245.58605853 158.42957578 -247.82421875 152.01171875 C-248.68363705 149.70833854 -249.64888086 147.59966842 -250.7890625 145.42578125 C-252.33710034 142.46717611 -253.50937218 139.51901414 -254.6015625 136.36328125 C-256.51026714 130.8901282 -258.92229083 125.73451639 -261.50317383 120.55249023 C-263.14961552 117.16576821 -263.7890625 115.28020607 -263.7890625 111.42578125 C-263.18433105 111.48636719 -262.57959961 111.54695312 -261.95654297 111.609375 C-259.19267526 111.88454467 -256.42838299 112.15519961 -253.6640625 112.42578125 C-252.71273437 112.52117187 -251.76140625 112.6165625 -250.78125 112.71484375 C-246.09805868 113.17015402 -241.5014299 113.55271371 -236.7890625 113.42578125 C-236.56766602 112.84199707 -236.34626953 112.25821289 -236.11816406 111.65673828 C-235.09271698 108.95440245 -234.06589573 106.25259066 -233.0390625 103.55078125 C-232.51699219 102.1740625 -232.51699219 102.1740625 -231.984375 100.76953125 C-214.44183615 54.63915131 -182.42922609 17.85496405 -137.46386719 -3.39013672 C-97.44882531 -21.10398786 -38.22805393 -25.24617213 0 0 Z " fill="#178AB9" transform="translate(297.7890625,119.57421875)"/>
<path d="M0 0 C-0.82230895 7.3915411 -2.12464045 14.68166923 -3.4375 22 C-3.65470703 23.23234375 -3.87191406 24.4646875 -4.09570312 25.734375 C-5.89689148 35.8167026 -5.89689148 35.8167026 -7.03125 40.1015625 C-8.44069685 45.4493578 -9.20602386 50.91699999 -10.0625 56.375 C-10.23587891 57.4475 -10.40925781 58.52 -10.58789062 59.625 C-11.36943792 64.54784961 -12.07629239 69.44533626 -12.52734375 74.41015625 C-12.86703612 78.08578298 -13.49778766 81.49963513 -14.5 85.0625 C-15.63194833 89.34421759 -16.36292132 93.42180788 -16.76171875 97.82421875 C-17.00770496 100.07035513 -17.41165732 102.226263 -17.875 104.4375 C-18.86093828 109.14809398 -19.66096413 113.87655082 -20.4375 118.625 C-21.44704261 124.73488279 -22.46700649 130.84236807 -23.5625 136.9375 C-23.79066406 138.22527344 -24.01882812 139.51304687 -24.25390625 140.83984375 C-25 144 -25 144 -27 147 C-27.50911315 148.63084046 -27.96121024 150.27990691 -28.375 151.9375 C-33.36308157 170.61835452 -41.49101991 185.31972229 -54 200 C-54.58136719 200.69609375 -55.16273438 201.3921875 -55.76171875 202.109375 C-63.93577694 211.08642631 -75.70947479 216.62254587 -86.625 221.4921875 C-89.94688519 222.90978903 -89.94688519 222.90978903 -92.75 224.5703125 C-101.03482068 228.21483698 -110.0167957 228.33365842 -118.9375 228.25 C-119.99291992 228.24250732 -121.04833984 228.23501465 -122.13574219 228.22729492 C-139.60881069 227.98543912 -156.3340726 223.62507367 -169.25 211.125 C-170.51992123 209.76837733 -171.77106386 208.3938583 -173 207 C-173.53367188 206.40703125 -174.06734375 205.8140625 -174.6171875 205.203125 C-181.53620577 196.81426347 -185.22408983 186.74231628 -186 176 C-183.81488506 174.54325671 -181.62975829 173.0865312 -179.44458008 171.62988281 C-177.55359226 170.36911511 -175.66280682 169.10804382 -173.7722168 167.84667969 C-169.07543464 164.71365203 -164.37617378 161.58459081 -159.66796875 158.46875 C-158.84796387 157.92508789 -158.02795898 157.38142578 -157.18310547 156.82128906 C-155.62737893 155.79011955 -154.07045038 154.76076075 -152.51220703 153.73339844 C-151.81337402 153.2696582 -151.11454102 152.80591797 -150.39453125 152.328125 C-149.78456299 151.9249707 -149.17459473 151.52181641 -148.54614258 151.10644531 C-146.84070911 149.94972924 -146.84070911 149.94972924 -145 148 C-142.875 148.375 -142.875 148.375 -141 149 C-140.96261719 149.79664063 -140.92523438 150.59328125 -140.88671875 151.4140625 C-140.28305818 161.14365058 -137.85992626 167.06861618 -131 174 C-130.01 174.66 -129.02 175.32 -128 176 C-128 176.66 -128 177.32 -128 178 C-126.576875 177.9690625 -126.576875 177.9690625 -125.125 177.9375 C-122 178 -122 178 -120 179 C-110.51307533 180.06318983 -102.25972417 177.51289159 -94.7890625 171.6953125 C-83.62607813 161.11728801 -80.88072049 147.37936807 -78.5078125 132.89306641 C-77.80058044 128.86388378 -76.92225098 124.87832539 -76.04711914 120.8828125 C-74.12135536 112.08571651 -72.56057544 103.43415947 -71.73999023 94.46655273 C-71.13282541 88.24648646 -69.87641205 82.25618276 -68.40795898 76.18603516 C-67.27086958 71.46307859 -66.52659623 66.83165612 -66 62 C-79.47382449 65.44168343 -92.82798422 69.08581995 -105.9375 73.75 C-109.59921175 74.99624224 -113.13500378 75.48641013 -116.98046875 75.81640625 C-119.36406212 76.03309656 -121.66668551 76.47312253 -124 77 C-124 74 -124 74 -121.47265625 71.328125 C-120.34454856 70.29262316 -119.20720181 69.26712772 -118.0625 68.25 C-117.46276367 67.70778809 -116.86302734 67.16557617 -116.24511719 66.60693359 C-112.48708396 63.23922749 -108.64362311 60.04867285 -104.609375 57.015625 C-100.99742416 54.22555519 -97.50888766 51.29297508 -94 48.375 C-85.51175114 41.3423088 -76.80531428 34.62901977 -68 28 C-66.83718371 27.12116767 -65.67441991 26.24226589 -64.51171875 25.36328125 C-61.68224281 23.23148431 -58.84462473 21.11151928 -56 19 C-55.2678125 18.45214844 -54.535625 17.90429688 -53.78125 17.33984375 C-49.24129526 14 -49.24129526 14 -47 14 C-47 13.34 -47 12.68 -47 12 C-45.97116699 11.70754395 -44.94233398 11.41508789 -43.88232422 11.11376953 C-40.04648694 10.0230077 -36.21115822 8.93046694 -32.37597656 7.83740234 C-30.71953819 7.36556642 -29.06296434 6.89420585 -27.40625 6.42333984 C-25.01786653 5.74443036 -22.62998384 5.06378371 -20.2421875 4.3828125 C-19.50757294 4.17439728 -18.77295837 3.96598206 -18.01608276 3.75125122 C-14.8765123 2.85432784 -11.78377994 1.92532787 -8.69580078 0.85888672 C-5.67395901 -0.10387722 -3.15218407 -0.150104 0 0 Z " fill="#1B93BF" transform="translate(193,209)"/>
<path d="M0 0 C0 2.125 0 2.125 -1 5 C-2.71102174 6.48993466 -4.5564246 7.7121825 -6.421875 9.00390625 C-10.31488822 12.01804224 -13.65687666 15.53624475 -17.07910156 19.06640625 C-19.83086054 21.88802412 -22.62274008 24.57322325 -25.62109375 27.1328125 C-30.96689752 31.75010819 -35.91799395 36.76848055 -40.90014648 41.76977539 C-42.5592732 43.43426277 -44.22368051 45.09333447 -45.88867188 46.75195312 C-50.95396301 51.81445417 -55.92200095 56.91125489 -60.57495117 62.36108398 C-62.55537121 64.6387197 -64.70004592 66.72176132 -66.875 68.8125 C-71.11976318 73.00612146 -74.86657399 77.4229699 -78.5859375 82.08203125 C-81.27871587 85.33689442 -84.11180693 88.41947241 -87 91.5 C-91.39952664 96.20242004 -95.55226493 101.02702541 -99.5859375 106.05078125 C-102.50672048 109.61905172 -105.52927197 113.08983669 -108.5625 116.5625 C-113.52851911 122.26180452 -118.34252641 128.04424429 -123 134 C-123.81597656 135.03125 -124.63195312 136.0625 -125.47265625 137.125 C-131.6899447 144.98894372 -137.79686632 152.93445364 -143.875 160.90625 C-146.59125336 164.46844115 -149.32443222 168.01705327 -152.0625 171.5625 C-159.67738823 181.46062052 -167.20086764 191.42863306 -174.5 201.5625 C-174.89703125 202.10962646 -175.2940625 202.65675293 -175.703125 203.22045898 C-177.64122922 205.93222853 -179.38795655 208.66142388 -180.96875 211.58984375 C-183.01149147 215.01929241 -185.18920291 217.19335476 -188 220 C-190.21407304 223.0102668 -192.25419478 226.13190721 -194.3125 229.25 C-207.55842228 248.88960557 -207.55842228 248.88960557 -216 251 C-223.61829863 251.74562072 -230.98712703 251.25459298 -238 248 C-240.875 245.5625 -240.875 245.5625 -243 243 C-243.63421875 242.39285156 -244.2684375 241.78570312 -244.921875 241.16015625 C-247.12358988 238.87153158 -248.70103697 236.57063061 -250.375 233.875 C-250.97828125 232.90949219 -251.5815625 231.94398438 -252.203125 230.94921875 C-253.87161344 228.21072142 -255.5017176 225.45293728 -257.125 222.6875 C-258.8069281 219.84392023 -260.49695229 217.28422249 -262.6875 214.8125 C-264.82038203 212.21845429 -265.9255922 209.9972976 -267.13671875 206.8984375 C-268.51241588 203.87314878 -270.4440614 201.25550515 -272.328125 198.52734375 C-274.19064462 195.71180592 -275.84110842 192.81476141 -277.5 189.875 C-282.57910072 181.12023429 -287.18481674 175.51865468 -296.875 171.9375 C-297.57625 171.628125 -298.2775 171.31875 -299 171 C-299.33 170.01 -299.66 169.02 -300 168 C-294.86346449 158.45190547 -286.15342613 150.01414521 -276 146 C-268.75616743 143.84642815 -261.91040083 144.39631504 -255.1875 147.74609375 C-243.40501974 154.49997975 -235.89269628 165.24289324 -228 176 C-227.00177158 177.33466018 -226.00252824 178.6685666 -225 180 C-220.36596201 179.1534505 -218.19127718 176.34625958 -215.1875 172.9375 C-214.65342529 172.34477295 -214.11935059 171.7520459 -213.5690918 171.14135742 C-212.03656588 169.43573309 -210.51596656 167.72034287 -209 166 C-208.33226562 165.24460938 -207.66453125 164.48921875 -206.9765625 163.7109375 C-205.8767133 162.45617996 -204.78028938 161.19841083 -203.6875 159.9375 C-200.17930751 155.90957529 -196.58930899 151.95556501 -193 148 C-192.12730469 147.03320312 -191.25460937 146.06640625 -190.35546875 145.0703125 C-181.87655887 135.7402664 -172.95438922 126.87101274 -164 118 C-161.08135469 115.09490877 -158.18440803 112.1702254 -155.30078125 109.23046875 C-153.97144431 107.88272358 -152.64201548 106.53506904 -151.3125 105.1875 C-150.63638672 104.49462891 -149.96027344 103.80175781 -149.26367188 103.08789062 C-148.61591797 102.43369141 -147.96816406 101.77949219 -147.30078125 101.10546875 C-146.71466064 100.50887451 -146.12854004 99.91228027 -145.5246582 99.29760742 C-144 98 -144 98 -142 98 C-141.73960937 97.40316406 -141.47921875 96.80632812 -141.2109375 96.19140625 C-139.91099639 93.83893217 -138.6882846 92.63949215 -136.625 90.9375 C-133.58609211 88.371189 -130.62266753 85.74900165 -127.7097168 83.04003906 C-122.64207502 78.32920478 -117.46740676 73.82354481 -112.07421875 69.484375 C-109.78882589 67.63747556 -107.5236115 65.77500647 -105.26953125 63.890625 C-87.59634189 49.13851855 -69.35734979 35.46865813 -50 23 C-49.08927734 22.40566162 -49.08927734 22.40566162 -48.16015625 21.79931641 C-41.09624081 17.19803096 -33.76007658 13.18897228 -26.3125 9.25 C-25.01119141 8.55934448 -25.01119141 8.55934448 -23.68359375 7.85473633 C-7.16037315 -0.75372349 -7.16037315 -0.75372349 0 0 Z " fill="#F06C29" transform="translate(505,39)"/>
<path d="M0 0 C0.47315541 24.89323159 0.47315541 24.89323159 -3.01953125 34.9296875 C-4.08253509 38.25845649 -4.45785308 41.340078 -4.8125 44.8125 C-5.54832949 50.41657738 -6.84696015 54.2059676 -9.84765625 58.9375 C-11.06687563 61.11969604 -11.51280746 62.86066679 -11.9375 65.3125 C-13.07236965 71.42170486 -16.1337559 76.5479796 -19 82 C-19.98043266 84.04105902 -20.95961673 86.08271832 -21.9375 88.125 C-25.9357739 96.11108112 -30.70109906 102.70109906 -37 109 C-38.28700847 110.78008314 -39.55594725 112.57328915 -40.8125 114.375 C-44.42115204 119.4082968 -48.19771153 123.14336765 -53 127 C-54.01302223 127.86806228 -55.02324102 128.7394025 -56.03125 129.61328125 C-57.10387988 130.53418831 -58.17679614 131.4547619 -59.25 132.375 C-60.24515625 133.22835937 -61.2403125 134.08171875 -62.265625 134.9609375 C-64.68901348 136.76809291 -66.0577351 137.6217088 -69 138 C-69 138.66 -69 139.32 -69 140 C-72.56928521 143.39517374 -75.56002983 145.31595946 -80.15112305 147.20776367 C-83.05958819 148.45402927 -85.82543034 149.96559511 -88.625 151.4375 C-98.06827691 156.23829312 -107.90065734 158.82912079 -118.1875 161.1875 C-118.91163086 161.35467529 -119.63576172 161.52185059 -120.38183594 161.6940918 C-129.84628114 163.76938418 -139.20846375 164.17108599 -148.875 164.125 C-149.93855713 164.12016602 -151.00211426 164.11533203 -152.09790039 164.11035156 C-173.63206999 163.94499666 -195.46297294 160.19138293 -213.87109375 148.32421875 C-216.7970076 146.50424665 -219.7963324 145.25360906 -223 144 C-223 142.68 -223 141.36 -223 140 C-220.7265625 138.17578125 -220.7265625 138.17578125 -217.625 136.3125 C-205.27273007 128.43085185 -196.35557196 118.63590419 -189 106 C-185.37517775 106.58278944 -182.59814475 107.57157064 -179.375 109.3125 C-162.30463151 118.07630525 -140.73070358 120.31329219 -122.09765625 115.03515625 C-121.07542969 114.69355469 -120.05320312 114.35195313 -119 114 C-118.38108887 113.80132324 -117.76217773 113.60264648 -117.12451172 113.39794922 C-96.03726636 106.53675679 -77.45752126 93.6763056 -66.3828125 74.1484375 C-65.92648437 73.43945312 -65.47015625 72.73046875 -65 72 C-64.34 72 -63.68 72 -63 72 C-62.86722656 71.42765625 -62.73445312 70.8553125 -62.59765625 70.265625 C-62.00619683 68.02349125 -61.26711146 65.91420381 -60.4375 63.75 C-60.03337891 62.69039063 -60.03337891 62.69039063 -59.62109375 61.609375 C-59.41613281 61.07828125 -59.21117187 60.5471875 -59 60 C-61.39711711 60.45228625 -63.79252818 60.9116008 -66.1875 61.375 C-66.86103516 61.50132812 -67.53457031 61.62765625 -68.22851562 61.7578125 C-71.06788419 62.31183563 -73.75253764 62.90061912 -76.44140625 63.98046875 C-80.11125726 65.44280633 -83.89002362 66.13564415 -87.75 66.9375 C-93.31054029 68.12773457 -98.6923368 69.41333032 -104.05078125 71.33984375 C-109.32441555 73.12590427 -114.43218956 74.12654115 -120 74 C-116.54898577 39.85312234 -116.54898577 39.85312234 -103.6875 29.1875 C-96.97811043 24.38242562 -90.64437227 22.04897662 -82.5859375 20.359375 C-69.51398663 17.53186631 -56.56092779 14.20549658 -43.5914917 10.94677734 C-40.87474382 10.26487305 -38.15733566 9.58562169 -35.43991184 8.90641689 C-32.14841346 8.08345738 -28.85741806 7.25849702 -25.56640625 6.43359375 C-23.76762779 5.98348183 -23.76762779 5.98348183 -21.93251038 5.52427673 C-15.60896555 3.93456125 -9.3075284 2.28784337 -3.02696228 0.53553772 C-1 0 -1 0 0 0 Z " fill="#F27C2A" transform="translate(352,297)"/>
<path d="M0 0 C4.29276429 3.56126186 5.99734268 7.86731985 8.125 12.875 C8.47175781 13.66519531 8.81851563 14.45539063 9.17578125 15.26953125 C11.79555075 21.30202731 13.99137976 27.08325434 14.9375 33.625 C15.57779894 37.73400499 16.40235853 41.67752337 17.5 45.6875 C20.7556576 58.6109733 21.19564402 71.42760562 21.25 84.6875 C21.26389771 86.62846558 21.26389771 86.62846558 21.27807617 88.60864258 C21.25012244 97.2309973 20.44724334 105.50345836 19 114 C18.84450684 114.91716797 18.68901367 115.83433594 18.52880859 116.77929688 C17.50592588 122.56285137 15.83447415 128.09955537 14.04296875 133.6875 C13.39774188 135.73675986 12.78851575 137.79821747 12.23828125 139.875 C9.22456591 150.93018995 4.06600222 161.11215914 -0.82666016 171.43554688 C-1.96767949 173.92936024 -3.00377254 176.44533476 -4 179 C-4.66 179 -5.32 179 -6 179 C-6.23589844 179.68835938 -6.47179687 180.37671875 -6.71484375 181.0859375 C-8.25889273 184.58703336 -10.31921317 187.55020492 -12.5625 190.625 C-13.00505127 191.23674072 -13.44760254 191.84848145 -13.90356445 192.47875977 C-20.02863874 200.87003512 -26.47791017 208.82068895 -34 216 C-34.804375 216.804375 -35.60875 217.60875 -36.4375 218.4375 C-37.283125 219.283125 -38.12875 220.12875 -39 221 C-39.53608887 221.57524414 -40.07217773 222.15048828 -40.62451172 222.74316406 C-45.79977907 228.17415051 -51.39564015 232.26169836 -57.6875 236.3125 C-59.07291992 237.22225586 -59.07291992 237.22225586 -60.48632812 238.15039062 C-72.48094575 246 -72.48094575 246 -75 246 C-75 246.66 -75 247.32 -75 248 C-75.99 248.4125 -76.98 248.825 -78 249.25 C-81.34467007 250.67957672 -84.58241447 252.2667661 -87.8125 253.9375 C-102.93352911 261.28199985 -118.13829405 264.96169279 -134.81201172 266.70629883 C-136.97248711 266.94675996 -136.97248711 266.94675996 -138.91137695 267.5234375 C-143.8868835 268.65870211 -149.23489687 268.19079201 -154.3125 268.1875 C-155.57964844 268.18669434 -156.84679687 268.18588867 -158.15234375 268.18505859 C-166.96802384 268.12735843 -175.31548295 267.55592999 -184 266 C-185.41345703 265.83564453 -185.41345703 265.83564453 -186.85546875 265.66796875 C-205.65698494 263.3080543 -226.66498024 254.15573326 -242 243 C-242.66 242.01 -243.32 241.02 -244 240 C-239.78055482 240.57433464 -237.0130241 242.04070441 -233.4375 244.3125 C-205.95780468 260.69334027 -167.43314157 260.33847139 -137.3046875 252.8984375 C-126.48320189 249.95642604 -116.97143686 246.25751573 -107.2421875 240.76953125 C-104.52335725 239.28563956 -101.86909751 238.13836723 -99 237 C-97.98131338 236.01904252 -96.97648017 235.02297922 -96 234 C-95.34 234 -94.68 234 -94 234 C-94 233.34 -94 232.68 -94 232 C-92.48828125 230.9140625 -92.48828125 230.9140625 -90.3125 229.625 C-85.09317214 226.30058735 -80.77494923 222.24617414 -76.34301758 217.96337891 C-72.19789533 214 -72.19789533 214 -70 214 C-69.73960937 213.4328125 -69.47921875 212.865625 -69.2109375 212.28125 C-67.89131636 209.79525405 -66.36127991 207.71394643 -64.625 205.5 C-64.03976562 204.7471875 -63.45453125 203.994375 -62.8515625 203.21875 C-61 201 -61 201 -59.015625 199.09375 C-51.95140406 191.75572205 -47.30406509 181.10803576 -43 172 C-42.53464844 171.02675781 -42.06929687 170.05351562 -41.58984375 169.05078125 C-39.2624124 164.07699938 -37.49700639 159.28942257 -36 154 C-35.34769011 152.80455343 -34.67967834 151.61760086 -34 150.4375 C-31.47716954 145.65250054 -31.13347499 140.70554028 -30.5 135.39453125 C-30.06823208 132.46323188 -29.45864435 130.01396283 -28.4375 127.25 C-24.67819071 116.8074742 -25.81814592 104.94026411 -26 94 C-26.01885254 92.55391357 -26.01885254 92.55391357 -26.03808594 91.07861328 C-26.22972689 79.01501088 -27.00401579 67.66778536 -30.0625 55.97265625 C-30.38039884 54.64972319 -30.69278801 53.32545552 -31 52 C-31.18723633 51.27490234 -31.37447266 50.54980469 -31.56738281 49.80273438 C-32.24397725 46.3799625 -32.50711818 44.03139713 -30.93945312 40.84301758 C-29.32025034 38.56816269 -27.58718717 36.47758203 -25.75 34.375 C-24.4499764 32.80100245 -23.15182435 31.22545741 -21.85546875 29.6484375 C-21.20368652 28.86952148 -20.5519043 28.09060547 -19.88037109 27.28808594 C-17.14040656 23.95402366 -14.59089734 20.49576062 -12.0625 17 C-11.61898193 16.3913208 -11.17546387 15.7826416 -10.71850586 15.15551758 C-7.08079208 10.14929464 -3.51248063 5.09489512 0 0 Z " fill="#1F96C4" transform="translate(377,203)"/>
<path d="M0 0 C18.26857516 -0.69907082 36.25370678 1.71259015 53.38916016 8.28662109 C55.70771597 9.17140936 58.03782005 10.01885372 60.37207031 10.86132812 C61.18998047 11.15845703 62.00789062 11.45558594 62.85058594 11.76171875 C64.53706721 12.3739075 66.22459388 12.98322303 67.91308594 13.58984375 C69.1302832 14.03360352 69.1302832 14.03360352 70.37207031 14.48632812 C71.10143799 14.75002197 71.83080566 15.01371582 72.58227539 15.28540039 C74.54003906 16.10742188 74.54003906 16.10742188 77.54003906 18.10742188 C77.54003906 18.76742187 77.54003906 19.42742187 77.54003906 20.10742188 C79.19003906 20.43742187 80.84003906 20.76742187 82.54003906 21.10742188 C82.54003906 21.76742187 82.54003906 22.42742187 82.54003906 23.10742188 C83.93222656 23.54054687 83.93222656 23.54054687 85.35253906 23.98242188 C88.54003906 25.10742188 88.54003906 25.10742188 91.54003906 27.10742188 C91.10123672 31.95599748 89.13880258 33.95687669 85.69238281 37.27539062 C85.20226212 37.75510818 84.71214142 38.23482574 84.20716858 38.7290802 C82.63986523 40.26088759 81.05991889 41.77870596 79.47753906 43.29492188 C77.41712068 45.2812824 75.36412185 47.27493949 73.31738281 49.27539062 C72.81733734 49.76135712 72.31729187 50.24732361 71.80209351 50.74801636 C67.89165488 54.60866716 64.54946911 58.75684215 61.35864258 63.23754883 C59.11441542 65.54504458 57.72555995 65.93460363 54.54003906 66.10742188 C51.87597656 64.55273438 51.87597656 64.55273438 48.91503906 62.23242188 C40.73535736 56.19004261 31.88099316 52.04857801 22.54003906 48.10742188 C21.8060791 47.78547852 21.07211914 47.46353516 20.31591797 47.13183594 C-2.28499066 37.48728473 -28.45490789 40.22006626 -50.84521484 49.04785156 C-70.47301672 57.14664174 -90.75525531 71.05941007 -101.10839844 90.14648438 C-104.22995793 94.07695298 -107.21388016 95.01855291 -111.89746094 96.48242188 C-112.64833984 96.74152344 -113.39921875 97.000625 -114.17285156 97.26757812 C-118.03001107 98.54990556 -121.34442739 99.45106484 -125.45996094 99.10742188 C-125.22064251 92.64582434 -123.39526474 88.77898627 -119.83496094 83.40429688 C-118.54462167 81.24884377 -117.90983749 79.55924911 -117.45996094 77.10742188 C-116.79996094 77.10742188 -116.13996094 77.10742188 -115.45996094 77.10742188 C-115.19183594 76.42679687 -114.92371094 75.74617188 -114.64746094 75.04492188 C-114.25558594 74.07554687 -113.86371094 73.10617188 -113.45996094 72.10742188 C-113.02683594 70.95242187 -112.59371094 69.79742187 -112.14746094 68.60742188 C-110.33870408 64.85592617 -108.41434367 63.00654277 -105.45996094 60.10742188 C-103.73235261 58.07842393 -102.02684391 56.04039385 -100.33496094 53.98242188 C-94.36045904 46.82142861 -88.07090582 39.77355554 -80.75292969 33.95507812 C-78.34729951 32.18185848 -78.34729951 32.18185848 -76.64746094 29.60742188 C-73.77685451 26.32672882 -70.53342173 24.60464874 -66.45996094 23.10742188 C-65.46996094 23.10742188 -64.47996094 23.10742188 -63.45996094 23.10742188 C-63.43933594 22.52992188 -63.41871094 21.95242187 -63.39746094 21.35742188 C-62.1061555 18.25828883 -60.19849126 17.45019386 -57.34667969 15.84179688 C-55.45996094 15.10742188 -55.45996094 15.10742188 -51.45996094 15.10742188 C-51.45996094 14.44742188 -51.45996094 13.78742188 -51.45996094 13.10742188 C-43.18661598 9.30706423 -34.78967253 6.5869651 -26.05273438 4.07568359 C-25.21387695 3.83350098 -24.37501953 3.59131836 -23.51074219 3.34179688 C-22.75446533 3.12749023 -21.99818848 2.91318359 -21.21899414 2.69238281 C-19.45476758 2.25151076 -19.45476758 2.25151076 -18.45996094 1.10742188 C-12.33059697 0.42917258 -6.15799646 0.26890814 0 0 Z " fill="#F27A2A" transform="translate(239.4599609375,114.892578125)"/>
<path d="M0 0 C-0.33 0.99 -0.66 1.98 -1 3 C-2.6441674 3.73798307 -4.29437784 4.46529706 -5.97167969 5.12451172 C-9.60161538 6.69130871 -12.82840753 8.89733624 -16.125 11.0625 C-16.86637207 11.54638184 -17.60774414 12.03026367 -18.37158203 12.52880859 C-25.1843529 17.02814016 -31.64068355 21.88580596 -38 27 C-38.90878906 27.72703125 -39.81757813 28.4540625 -40.75390625 29.203125 C-51.05005102 37.53595832 -61.08802604 46.21438672 -71 55 C-71.70640625 55.62519531 -72.4128125 56.25039062 -73.140625 56.89453125 C-75.77601821 59.24631427 -78.39085749 61.61911356 -81 64 C-81.51933105 64.47276367 -82.03866211 64.94552734 -82.57373047 65.43261719 C-92.32409956 74.34317347 -101.71482628 83.60883232 -111.0625 92.9375 C-111.65094696 93.52335876 -112.23939392 94.10921753 -112.84567261 94.71282959 C-118.62444286 100.47154342 -124.34874155 106.21647191 -129.64624023 112.42797852 C-131.33514895 114.38918378 -133.13864486 116.20282952 -135 118 C-138.16747959 121.12508502 -141.11885247 124.36241889 -144.01953125 127.734375 C-146.46606272 130.5331684 -148.98097664 133.26670022 -151.5 136 C-164.79136091 150.4531541 -177.39632145 165.54115667 -189.5 181 C-194.25294458 187.06753629 -199.04262357 193.09709901 -204 199 C-204.77472656 199.92296875 -205.54945313 200.8459375 -206.34765625 201.796875 C-207.11980469 202.68890625 -207.89195312 203.5809375 -208.6875 204.5 C-209.71423828 205.69109375 -209.71423828 205.69109375 -210.76171875 206.90625 C-214.44313053 210.34994409 -217.92893187 211.82724708 -222.875 212.625 C-228.37317964 212.37413249 -231.44655504 208.87332454 -235 205 C-238.58446427 200.85969435 -241.87934786 196.52797405 -245.1171875 192.11328125 C-257.95621333 174.02590272 -257.95621333 174.02590272 -277 164 C-283.01082839 163.57644837 -288.37860706 163.56912738 -294 166 C-294 162 -294 162 -292.3203125 160.18359375 C-291.59585938 159.60738281 -290.87140625 159.03117188 -290.125 158.4375 C-287.49739528 156.3231729 -285.89902095 154.84853143 -284 152 C-283.34 152 -282.68 152 -282 152 C-281.95875 151.401875 -281.9175 150.80375 -281.875 150.1875 C-281 148 -281 148 -278.25 146.3125 C-271.11334488 143.43038928 -263.66538648 142.61650148 -256.4375 145.625 C-243.40214663 152.12004587 -235.41591365 163.52979028 -227 175 C-226.00177158 176.33466018 -225.00252824 177.6685666 -224 179 C-219.36596201 178.1534505 -217.19127718 175.34625958 -214.1875 171.9375 C-213.65342529 171.34477295 -213.11935059 170.7520459 -212.5690918 170.14135742 C-211.03656588 168.43573309 -209.51596656 166.72034287 -208 165 C-207.33226562 164.24460938 -206.66453125 163.48921875 -205.9765625 162.7109375 C-204.8767133 161.45617996 -203.78028938 160.19841083 -202.6875 158.9375 C-199.17930751 154.90957529 -195.58930899 150.95556501 -192 147 C-191.12730469 146.03320312 -190.25460937 145.06640625 -189.35546875 144.0703125 C-180.87655887 134.7402664 -171.95438922 125.87101274 -163 117 C-160.08135469 114.09490877 -157.18440803 111.1702254 -154.30078125 108.23046875 C-152.97144431 106.88272358 -151.64201548 105.53506904 -150.3125 104.1875 C-149.63638672 103.49462891 -148.96027344 102.80175781 -148.26367188 102.08789062 C-147.61591797 101.43369141 -146.96816406 100.77949219 -146.30078125 100.10546875 C-145.71466064 99.50887451 -145.12854004 98.91228027 -144.5246582 98.29760742 C-143 97 -143 97 -141 97 C-140.73960937 96.40316406 -140.47921875 95.80632812 -140.2109375 95.19140625 C-138.91099639 92.83893217 -137.6882846 91.63949215 -135.625 89.9375 C-132.58609211 87.371189 -129.62266753 84.74900165 -126.7097168 82.04003906 C-121.64207502 77.32920478 -116.46740676 72.82354481 -111.07421875 68.484375 C-108.78882589 66.63747556 -106.5236115 64.77500647 -104.26953125 62.890625 C-86.59634189 48.13851855 -68.35734979 34.46865813 -49 22 C-48.08927734 21.40566162 -48.08927734 21.40566162 -47.16015625 20.79931641 C-40.05679741 16.17233836 -32.67753249 12.14683166 -25.1875 8.1875 C-24.30320312 7.71868408 -23.41890625 7.24986816 -22.5078125 6.7668457 C-8.49595424 -0.53099714 -8.49595424 -0.53099714 0 0 Z " fill="#F58E2B" transform="translate(504,40)"/>
<path d="M0 0 C0.99 0 1.98 0 3 0 C3.14695312 1.32451172 3.14695312 1.32451172 3.296875 2.67578125 C4.56499443 12.85353288 6.19603488 25.22436504 14.6015625 32.140625 C18.75453792 34.41282765 22.80760357 35.59176071 27.375 36.75 C28.20644531 36.97042969 29.03789062 37.19085938 29.89453125 37.41796875 C31.92707154 37.95530699 33.96319608 38.47905644 36 39 C36 39.66 36 40.32 36 41 C35.02160156 41.21914062 34.04320312 41.43828125 33.03515625 41.6640625 C22.76100578 44.09655122 14.3373351 46.98950915 8 56 C5.09798395 63.1122425 3.51810816 70.35790461 3 78 C2.01 78.33 1.02 78.66 0 79 C-0.15855469 77.96101563 -0.31710937 76.92203125 -0.48046875 75.8515625 C-2.81036006 61.17395463 -2.81036006 61.17395463 -11.625 49.625 C-18.69657587 44.91506362 -26.59438953 42.6343857 -35 42 C-35.495 40.515 -35.495 40.515 -36 39 C-35.04480469 38.85304687 -34.08960938 38.70609375 -33.10546875 38.5546875 C-19.09199691 36.12365772 -19.09199691 36.12365772 -8.0625 27.6328125 C-2.61512066 19.01652498 -1.40341061 9.92838357 0 0 Z " fill="#EC8829" transform="translate(348,51)"/>
<path d="M0 0 C0.33 0.66 0.66 1.32 1 2 C0.27039063 2.71542969 -0.45921875 3.43085938 -1.2109375 4.16796875 C-3.8029197 6.79988345 -6.20865021 9.52036337 -8.625 12.3125 C-13.56728715 17.77696333 -18.87190828 21.94844539 -25 26 C-25.7115625 26.49371094 -26.423125 26.98742187 -27.15625 27.49609375 C-31.84067494 30.6283382 -36.59166166 32.46012589 -42 34 C-42 34.66 -42 35.32 -42 36 C-48.8158998 40.69512522 -57.04949998 43.05303492 -65.125 44.5078125 C-67.31240863 44.97335722 -67.31240863 44.97335722 -70 47 C-72.55859375 47.37890625 -72.55859375 47.37890625 -75.4375 47.5625 C-79.18862186 47.78626494 -79.18862186 47.78626494 -82.86328125 48.4921875 C-86.11819054 49.26574912 -89.42060464 49.37054053 -92.75 49.5625 C-93.44738281 49.60568359 -94.14476562 49.64886719 -94.86328125 49.69335938 C-96.57531922 49.79889596 -98.28763561 49.8998991 -100 50 C-100.33 51.65 -100.66 53.3 -101 55 C-99.96552734 54.89171875 -99.96552734 54.89171875 -98.91015625 54.78125 C-93.61500596 54.25827219 -88.43916301 53.95541301 -83.12109375 54.03125 C-80.9975137 53.99996337 -78.97768244 53.79058184 -76.875 53.5 C-73.1854586 53.02393014 -69.71396848 53 -66 53 C-62.9916102 52.7300163 -59.9962687 52.38047857 -57 52 C-57 51.34 -57 50.68 -57 50 C-55.96552734 50.08701172 -55.96552734 50.08701172 -54.91015625 50.17578125 C-48.46628156 50.48515795 -44.78485185 49.72659966 -39.37109375 46.30078125 C-34.91362387 43.85541474 -29.9237364 43.10316626 -25 42 C-22.91354394 41.44919591 -20.82997336 40.88729984 -18.75 40.3125 C-17.83734375 40.06113281 -16.9246875 39.80976563 -15.984375 39.55078125 C-15.32953125 39.36902344 -14.6746875 39.18726563 -14 39 C-14 38.01 -14 37.02 -14 36 C-12.68 36.66 -11.36 37.32 -10 38 C-11.68519502 38.941637 -13.37328697 39.8780901 -15.0625 40.8125 C-16.47208984 41.59560547 -16.47208984 41.59560547 -17.91015625 42.39453125 C-33.13983421 50.3078026 -48.85238533 53.93177756 -65.81201172 55.70629883 C-67.97248711 55.94675996 -67.97248711 55.94675996 -69.91137695 56.5234375 C-74.8868835 57.65870211 -80.23489687 57.19079201 -85.3125 57.1875 C-86.57964844 57.18669434 -87.84679687 57.18588867 -89.15234375 57.18505859 C-97.96802384 57.12735843 -106.31548295 56.55592999 -115 55 C-115.94230469 54.89042969 -116.88460937 54.78085937 -117.85546875 54.66796875 C-136.65698494 52.3080543 -157.66498024 43.15573326 -173 32 C-173.66 31.01 -174.32 30.02 -175 29 C-170.78055482 29.57433464 -168.0130241 31.04070441 -164.4375 33.3125 C-136.95780468 49.69334027 -98.43314157 49.33847139 -68.3046875 41.8984375 C-57.48320189 38.95642604 -47.97143686 35.25751573 -38.2421875 29.76953125 C-35.52335725 28.28563956 -32.86909751 27.13836723 -30 26 C-28.98131338 25.01904252 -27.97648017 24.02297922 -27 23 C-26.34 23 -25.68 23 -25 23 C-25 22.34 -25 21.68 -25 21 C-23.48828125 19.9140625 -23.48828125 19.9140625 -21.3125 18.625 C-16.09317214 15.30058735 -11.77494923 11.24617414 -7.34301758 6.96337891 C-3.19789533 3 -3.19789533 3 -1 3 C-0.67 2.01 -0.34 1.02 0 0 Z " fill="#346C8E" transform="translate(308,414)"/>
<path d="M0 0 C40.72743996 -0.27295405 74.28259934 5.95230433 108 30 C108.81726563 30.58136719 109.63453125 31.16273438 110.4765625 31.76171875 C115.8363178 35.67263561 115.8363178 35.67263561 117 38 C116.443125 37.71125 115.88625 37.4225 115.3125 37.125 C112.97193593 35.94039559 112.97193593 35.94039559 110.3125 35 C108 34 108 34 107 32 C104.97536745 31.34786708 104.97536745 31.34786708 103 31 C103 30.34 103 29.68 103 29 C101.783125 28.608125 100.56625 28.21625 99.3125 27.8125 C92.38653121 25.50748515 85.58060988 22.84860327 78.8125 20.1171875 C73.01635533 17.82288024 67.07721491 16.3574535 61 15 C59.82308594 14.71769531 58.64617187 14.43539062 57.43359375 14.14453125 C43.76432666 11.13951457 29.92120204 11.711914 16 12 C16 11.67 16 11.34 16 11 C37.13413984 7.80563608 37.13413984 7.80563608 47 10 C46.505 8.515 46.505 8.515 46 7 C41.7641643 6.97530679 37.52836658 6.95714329 33.29248047 6.94506836 C31.8510668 6.94003526 30.40965824 6.93320827 28.96826172 6.92456055 C26.89809915 6.91245017 24.82800399 6.90676153 22.7578125 6.90234375 C20.88826904 6.89448853 20.88826904 6.89448853 18.98095703 6.88647461 C16.07228894 6.79183413 16.07228894 6.79183413 14 8 C11.3276379 8.13415472 8.67749512 8.04318541 6 8 C5.87625 7.360625 5.7525 6.72125 5.625 6.0625 C5.41875 5.381875 5.2125 4.70125 5 4 C4.34 3.67 3.68 3.34 3 3 C3 2.34 3 1.68 3 1 C2.01 0.67 1.02 0.34 0 0 Z M6 2 C6.33 2.66 6.66 3.32 7 4 C7.33 3.34 7.66 2.68 8 2 C7.34 2 6.68 2 6 2 Z " fill="#30A4BD" transform="translate(214,104)"/>
<path d="M0 0 C1.32 0.66 2.64 1.32 4 2 C2.31480498 2.941637 0.62671303 3.8780901 -1.0625 4.8125 C-2.00222656 5.33457031 -2.94195312 5.85664063 -3.91015625 6.39453125 C-19.13983421 14.3078026 -34.85238533 17.93177756 -51.81201172 19.70629883 C-53.97248711 19.94675996 -53.97248711 19.94675996 -55.91137695 20.5234375 C-70.69611411 23.89688074 -94.31739017 22.98686459 -108 16 C-109.99263591 15.31163487 -111.99041337 14.63718601 -114 14 C-113.67 13.34 -113.34 12.68 -113 12 C-90.23 11.505 -90.23 11.505 -67 11 C-70.02093215 14.02093215 -73.56372072 13.46676834 -77.625 13.625 C-78.42679688 13.66367187 -79.22859375 13.70234375 -80.0546875 13.7421875 C-82.03607556 13.83653931 -84.01800645 13.91936215 -86 14 C-86.33 15.65 -86.66 17.3 -87 19 C-86.31035156 18.9278125 -85.62070313 18.855625 -84.91015625 18.78125 C-79.61500596 18.25827219 -74.43916301 17.95541301 -69.12109375 18.03125 C-66.9975137 17.99996337 -64.97768244 17.79058184 -62.875 17.5 C-59.1854586 17.02393014 -55.71396848 17 -52 17 C-48.9916102 16.7300163 -45.9962687 16.38047857 -43 16 C-43 15.34 -43 14.68 -43 14 C-41.96552734 14.08701172 -41.96552734 14.08701172 -40.91015625 14.17578125 C-34.46628156 14.48515795 -30.78485185 13.72659966 -25.37109375 10.30078125 C-20.91362387 7.85541474 -15.9237364 7.10316626 -11 6 C-8.91354394 5.44919591 -6.82997336 4.88729984 -4.75 4.3125 C-3.83734375 4.06113281 -2.9246875 3.80976563 -1.984375 3.55078125 C-1.32953125 3.36902344 -0.6746875 3.18726563 0 3 C0 2.01 0 1.02 0 0 Z " fill="#046192" transform="translate(294,450)"/>
<path d="M0 0 C0.66 0.33 1.32 0.66 2 1 C0.56502257 4.67323026 -1.001535 5.84166413 -4.5 7.5625 C-7.81671801 9.20470616 -8.87745048 9.81617571 -11 13 C-12.66666667 13.66666667 -14.33333333 14.33333333 -16 15 C-16.99 16.485 -16.99 16.485 -18 18 C-21.625 18.1875 -21.625 18.1875 -25 18 C-25.309375 18.8353125 -25.309375 18.8353125 -25.625 19.6875 C-27.55000774 22.92501302 -30.03850902 24.68231141 -33 27 C-32.34 27.33 -31.68 27.66 -31 28 C-30.03895122 30.446306 -29.90817853 31.69640532 -30.67578125 34.234375 C-31.13222007 38.12785311 -29.76807771 40.10988595 -27.875 43.5 C-27.27429687 44.6034375 -26.67359375 45.706875 -26.0546875 46.84375 C-23.98376651 50.02493662 -21.74154533 52.39197149 -19 55 C-18.21625 56.03125 -17.4325 57.0625 -16.625 58.125 C-13.62683491 61.40870462 -11.11245843 62.4297886 -7 64 C-6.278125 64.5775 -5.55625 65.155 -4.8125 65.75 C-3.05179959 67.2654251 -3.05179959 67.2654251 -0.75 66.6875 C-0.1725 66.460625 0.405 66.23375 1 66 C1 66.99 1 67.98 1 69 C1.57234375 69.14308594 2.1446875 69.28617187 2.734375 69.43359375 C4.18352545 69.79588136 5.63156985 70.16264111 7.078125 70.53515625 C10.94295579 71.47355941 14.44962483 72.10895834 18.4375 72 C19.613125 72 20.78875 72 22 72 C22.99 72.99 22.99 72.99 24 74 C26.17537684 74.28042984 26.17537684 74.28042984 28.5625 74.1875 C29.36816406 74.18105469 30.17382812 74.17460937 31.00390625 74.16796875 C32.99879885 74.21630912 32.99879885 74.21630912 34 73 C35.99655506 72.81282296 37.99790735 72.67604461 40 72.5625 C45.53657328 72.18403523 50.62826531 71.36569526 56 70 C56 69.01 56 68.02 56 67 C59.465 66.505 59.465 66.505 63 66 C63.99 67.485 63.99 67.485 65 69 C48.08300742 77.61149235 25.27954021 79.32923151 7 74 C-4.76317736 69.97255556 -14.74466067 64.36319872 -23 55 C-23.53367187 54.40703125 -24.06734375 53.8140625 -24.6171875 53.203125 C-31.53620577 44.81426347 -35.22408983 34.74231628 -36 24 C-24 16 -12 8 0 0 Z " fill="#055883" transform="translate(43,361)"/>
<path d="M0 0 C0.495 1.98 0.495 1.98 1 4 C0.01 4.33 -0.98 4.66 -2 5 C-2.185625 6.1446875 -2.185625 6.1446875 -2.375 7.3125 C-3 10 -3 10 -5 13 C-5.16671852 15.4582293 -5.16671852 15.4582293 -5 18 C-5 21.82740457 -5.14077385 22.70481738 -6.875 25.8125 C-8.82126924 29.4910869 -9.99208414 32.96833656 -11 37 C-11.66 36.34 -12.32 35.68 -13 35 C-13.33 36.258125 -13.66 37.51625 -14 38.8125 C-14.2784375 39.87404297 -14.2784375 39.87404297 -14.5625 40.95703125 C-15.1047007 43.14070009 -15.1047007 43.14070009 -15 46 C-16.65 46.66 -18.3 47.32 -20 48 C-20 48.66 -20 49.32 -20 50 C-21.20398438 50.12117188 -22.40796875 50.24234375 -23.6484375 50.3671875 C-25.22400766 50.53599859 -26.79952592 50.70529459 -28.375 50.875 C-29.1690625 50.95363281 -29.963125 51.03226563 -30.78125 51.11328125 C-35.3593122 51.46476858 -35.3593122 51.46476858 -39 54 C-39.24212873 55.98128508 -39.24212873 55.98128508 -39.125 58.125 C-39.063125 60.043125 -39.063125 60.043125 -39 62 C-41.41018108 59.0031766 -43.08914691 55.99429744 -44.6875 52.5 C-45.12449219 51.5615625 -45.56148437 50.623125 -46.01171875 49.65625 C-47 47 -47 47 -47 43 C-46.09290283 43.09087891 -46.09290283 43.09087891 -45.16748047 43.18359375 C-42.40361276 43.45876342 -39.63932049 43.72941836 -36.875 44 C-35.44800781 44.14308594 -35.44800781 44.14308594 -33.9921875 44.2890625 C-29.30899618 44.74437277 -24.7123674 45.12693246 -20 45 C-19.77860352 44.41621582 -19.55720703 43.83243164 -19.32910156 43.23095703 C-18.30365448 40.5286212 -17.27683323 37.82680941 -16.25 35.125 C-15.90195313 34.2071875 -15.55390625 33.289375 -15.1953125 32.34375 C-14.13668963 29.55996395 -13.07061868 26.77919365 -12 24 C-11.66057373 23.11610596 -11.32114746 22.23221191 -10.97143555 21.3215332 C-9.02271761 16.33559444 -6.89056489 11.62946625 -4.3125 6.9375 C-3.71050781 5.83277344 -3.10851562 4.72804687 -2.48828125 3.58984375 C-1 1 -1 1 0 0 Z " fill="#0C79AE" transform="translate(81,188)"/>
<path d="M0 0 C2 1 2 1 3.125 3.8125 C4 7 4 7 4 11 C6.93720508 12.52299523 9.9168649 13.80100302 13 15 C13 15.66 13 16.32 13 17 C11.3603125 17.556875 11.3603125 17.556875 9.6875 18.125 C6.68218761 19.41558778 6.05191258 19.91944599 4.1875 22.8125 C3.05319171 25.85722224 1.96078094 28.8959385 1 32 C-1.24360747 29.75639253 -1.50833234 28.56702825 -2.3125 25.5625 C-3.33655998 22.35137724 -3.70208927 21.24303244 -6.375 19.0625 C-7.674375 18.5365625 -7.674375 18.5365625 -9 18 C-9.928125 17.608125 -10.85625 17.21625 -11.8125 16.8125 C-12.534375 16.544375 -13.25625 16.27625 -14 16 C-13.443125 15.731875 -12.88625 15.46375 -12.3125 15.1875 C-11.549375 14.795625 -10.78625 14.40375 -10 14 C-9.154375 13.566875 -8.30875 13.13375 -7.4375 12.6875 C-2.88730231 9.53736314 -1.55638494 5.14804248 0 0 Z " fill="#DB7D25" transform="translate(441,137)"/>
<path d="M0 0 C20.23860404 -0.55787883 40.85367617 -0.07522827 60 7 C60 7.33 60 7.66 60 8 C56.7 8.33 53.4 8.66 50 9 C50 8.34 50 7.68 50 7 C45.19450253 6.97531553 40.38904182 6.95714745 35.58349609 6.94506836 C33.94807289 6.94003379 32.3126542 6.93320573 30.67724609 6.92456055 C28.32909025 6.91245665 25.98099381 6.906763 23.6328125 6.90234375 C22.89942657 6.89718246 22.16604065 6.89202118 21.41043091 6.88670349 C17.57877344 6.816844 17.57877344 6.816844 14 8 C11.3276379 8.13415472 8.67749512 8.04318541 6 8 C5.87625 7.360625 5.7525 6.72125 5.625 6.0625 C5.41875 5.381875 5.2125 4.70125 5 4 C4.34 3.67 3.68 3.34 3 3 C3 2.34 3 1.68 3 1 C2.01 0.67 1.02 0.34 0 0 Z M6 2 C6.33 2.66 6.66 3.32 7 4 C7.33 3.34 7.66 2.68 8 2 C7.34 2 6.68 2 6 2 Z " fill="#2AB3D8" transform="translate(214,104)"/>
<path d="M0 0 C5.31090505 0.72289996 8.93167832 3.26976936 13.37890625 6.11328125 C22.44074365 11.24104711 33.18318176 13.10765866 43.25 15.25 C44.48363281 15.518125 45.71726563 15.78625 46.98828125 16.0625 C49.99096425 16.71424515 52.99480252 17.35996861 56 18 C56 18.33 56 18.66 56 19 C52.04 19.495 52.04 19.495 48 20 C48.54269531 20.19335938 49.08539063 20.38671875 49.64453125 20.5859375 C50.35996094 20.84632813 51.07539063 21.10671875 51.8125 21.375 C52.87404297 21.75785156 52.87404297 21.75785156 53.95703125 22.1484375 C56 23 56 23 59 25 C40.07337319 25.30386786 17.11897234 13.99856571 2 3 C1.34 2.01 0.68 1.02 0 0 Z " fill="#15597F" transform="translate(133,443)"/>
<path d="M0 0 C0.66 0 1.32 0 2 0 C2.22042969 0.92232422 2.22042969 0.92232422 2.4453125 1.86328125 C3.92039146 7.39787952 3.92039146 7.39787952 8.1875 11.0625 C9.115625 11.371875 10.04375 11.68125 11 12 C11 12.66 11 13.32 11 14 C10.071875 14.144375 9.14375 14.28875 8.1875 14.4375 C4.90682422 15.64580985 4.90682422 15.64580985 3.93359375 18.13671875 C3.19449517 20.41114288 2.54605174 22.67209519 2 25 C0.046875 24.18359375 0.046875 24.18359375 -2 23 C-2.2475 22.030625 -2.495 21.06125 -2.75 20.0625 C-3.65540289 16.93308103 -3.65540289 16.93308103 -5.8984375 15.94140625 C-7.9174999 15.20108337 -9.92178017 14.55096991 -12 14 C-12 13.34 -12 12.68 -12 12 C-10.948125 11.690625 -9.89625 11.38125 -8.8125 11.0625 C-3.81375708 8.9898505 -2.14258289 4.7097329 0 0 Z " fill="#F58C1D" transform="translate(394,48)"/>
<path d="M0 0 C0 0.33 0 0.66 0 1 C-1.20124512 0.99476318 -2.40249023 0.98952637 -3.64013672 0.98413086 C-8.08674376 0.96606347 -12.53334753 0.9545616 -16.97998047 0.94506836 C-18.90641831 0.94003213 -20.83285231 0.93320288 -22.75927734 0.92456055 C-25.52442368 0.91246392 -28.28951958 0.90676467 -31.0546875 0.90234375 C-31.9193161 0.89718246 -32.7839447 0.89202118 -33.67477417 0.88670349 C-37.97251002 0.75616111 -37.97251002 0.75616111 -42 2 C-43.66717737 1.99421119 -45.33432426 1.9459805 -47 1.875 C-52.01333687 1.80946618 -55.91762956 2.72642815 -60.62890625 4.33203125 C-64.17935521 5.3322401 -67.33362146 5.2036877 -71 5 C-67.78538134 2.8569209 -65.07198097 2.01544456 -61.375 0.9375 C-57.38194837 0.04515337 -57.38194837 0.04515337 -54 -2 C-35.91142349 -4.00160478 -17.78740831 -3.91649357 0 0 Z " fill="#D49751" transform="translate(275,118)"/>
<path d="M0 0 C-3.02093215 3.02093215 -6.56372072 2.46676834 -10.625 2.625 C-11.42679688 2.66367187 -12.22859375 2.70234375 -13.0546875 2.7421875 C-15.03607556 2.83653931 -17.01800645 2.91936215 -19 3 C-19.33 4.65 -19.66 6.3 -20 8 C-29.73547444 7.73400343 -37.86847203 6.65601213 -47 3 C-46.67 2.34 -46.34 1.68 -46 1 C-40.57400466 0.85641676 -35.14797947 0.71403992 -29.72192383 0.57275391 C-27.87816525 0.52457854 -26.03441507 0.47608041 -24.19067383 0.42724609 C-21.53208556 0.35688648 -18.87346868 0.28770889 -16.21484375 0.21875 C-15.39789536 0.19687622 -14.58094696 0.17500244 -13.73924255 0.15246582 C-9.15757845 0.03490765 -4.58317399 -0.02142922 0 0 Z " fill="#096EA2" transform="translate(227,461)"/>
<path d="M0 0 C1 2 1 2 0.44140625 4.05859375 C0.15136719 4.84363281 -0.13867188 5.62867188 -0.4375 6.4375 C-1.46835645 9.24346352 -2 10.97296354 -2 14 C7.42774013 11.91142886 16.69276749 9.6695371 25.8203125 6.48754883 C29.21676209 5.34968547 31.5990674 4.60364732 35 6 C33.64061939 6.90625374 32.27988151 7.81051024 30.9140625 8.70703125 C29.51301478 9.65345328 28.13572942 10.63531469 26.7734375 11.63671875 C26.00257813 12.18972656 25.23171875 12.74273437 24.4375 13.3125 C23.35275391 14.11107422 23.35275391 14.11107422 22.24609375 14.92578125 C19.38091582 16.29608374 18.00543653 15.83294918 15 15 C14.01 15 13.02 15 12 15 C12 14.34 12 13.68 12 13 C11.47921875 13.48082031 10.9584375 13.96164063 10.421875 14.45703125 C7.29094187 16.45173865 4.93631779 16.50318411 1.25 16.6875 C-0.50570312 16.78611328 -0.50570312 16.78611328 -2.296875 16.88671875 C-3.63492188 16.94279297 -3.63492188 16.94279297 -5 17 C-4.46246904 10.81839396 -2.45417612 5.673142 0 0 Z " fill="#107EAC" transform="translate(111,217)"/>
<path d="M0 0 C1.04597853 3.18062859 0.96378532 4.93591297 -0.1875 8.0625 C-0.46851563 8.83980469 -0.74953125 9.61710937 -1.0390625 10.41796875 C-1.35617187 11.27003906 -1.67328125 12.12210937 -2 13 C-2.33773438 13.96550781 -2.67546875 14.93101562 -3.0234375 15.92578125 C-5.72033006 23.58049508 -5.72033006 23.58049508 -8 27 C-7.34 27.33 -6.68 27.66 -6 28 C-8 30 -8 30 -10 31 C-10.94317383 32.66150436 -11.83026215 34.35507009 -12.6875 36.0625 C-15.5077994 41.3966959 -18.81461563 45.67840489 -23 50 C-23 46.03596829 -21.52251938 44.3802968 -19.375 41.0625 C-15.47121013 34.90389769 -12.11735157 28.59677513 -9 22 C-8.53464844 21.02675781 -8.06929688 20.05351562 -7.58984375 19.05078125 C-5.26176851 14.07562337 -3.40655323 9.30162373 -2 4 C-1.37530495 2.64649406 -0.7283669 1.30065517 0 0 Z " fill="#2A759A" transform="translate(343,353)"/>
<path d="M0 0 C0.99 0.33 1.98 0.66 3 1 C2.15356901 2.04796218 1.29723808 3.08792692 0.4375 4.125 C-0.03816406 4.70507812 -0.51382812 5.28515625 -1.00390625 5.8828125 C-6.13353203 11.32362888 -12.12347603 15.69122452 -18.25 19.9375 C-18.95640625 20.44345703 -19.6628125 20.94941406 -20.390625 21.47070312 C-21.07125 21.94314453 -21.751875 22.41558594 -22.453125 22.90234375 C-23.06317383 23.33023193 -23.67322266 23.75812012 -24.30175781 24.19897461 C-26 25 -26 25 -29 24 C-27.625 22 -27.625 22 -26 20 C-25.34 20 -24.68 20 -24 20 C-23.67 19.01 -23.34 18.02 -23 17 C-22.01 17 -21.02 17 -20 17 C-19.67 15.02 -19.34 13.04 -19 11 C-17.68 11 -16.36 11 -15 11 C-12.35367713 10.6878236 -12.35367713 10.6878236 -10 10 C-9.67 9.34 -9.34 8.68 -9 8 C-8.360625 7.690625 -7.72125 7.38125 -7.0625 7.0625 C-4.68028507 6.04654078 -4.68028507 6.04654078 -3 3 C-2.34 3 -1.68 3 -1 3 C-0.67 2.01 -0.34 1.02 0 0 Z " fill="#0E7CAB" transform="translate(337,420)"/>
<path d="M0 0 C0 3 0 3 -1.51855469 4.87931824 C-2.58444824 5.93521904 -2.58444824 5.93521904 -3.671875 7.01245117 C-4.47270508 7.81305466 -5.27353516 8.61365814 -6.09863281 9.43852234 C-6.97358398 10.29798965 -7.84853516 11.15745697 -8.75 12.04296875 C-9.6378418 12.9265657 -10.52568359 13.81016266 -11.44042969 14.72053528 C-13.80250628 17.06864023 -16.17085882 19.41003525 -18.54248047 21.74847412 C-20.96080875 24.13611759 -23.37066963 26.53227328 -25.78125 28.92773438 C-30.51304647 33.62639683 -35.25329741 38.31639917 -40 43 C-40.66 42.67 -41.32 42.34 -42 42 C-40.71937515 40.2925002 -39.38232443 38.62626404 -38 37 C-37.34 37 -36.68 37 -36 37 C-35.73017303 36.40518326 -35.46034607 35.81036652 -35.18234253 35.19752502 C-34.0046494 33.00864147 -32.83403589 31.586283 -31.08251953 29.83959961 C-30.4949588 29.24896225 -29.90739807 28.65832489 -29.30203247 28.04978943 C-28.66868988 27.42363235 -28.03534729 26.79747528 -27.3828125 26.15234375 C-26.72924774 25.49923721 -26.07568298 24.84613068 -25.40231323 24.17323303 C-24.02106225 22.79499905 -22.63738571 21.41919226 -21.25146484 20.0456543 C-19.13453169 17.94694962 -17.02568227 15.84038145 -14.91796875 13.73242188 C-13.57338704 12.3927569 -12.22834994 11.0535488 -10.8828125 9.71484375 C-10.25351837 9.08666245 -9.62422424 8.45848114 -8.9758606 7.81126404 C-6.11639257 4.98251508 -3.32600325 2.28889026 0 0 Z " fill="#311101" transform="translate(485,60)"/>
<path d="M0 0 C4.21944518 0.57433464 6.9869759 2.04070441 10.5625 4.3125 C19.18686335 9.48287999 28.20103302 12.0402066 38 14 C38 14.33 38 14.66 38 15 C36.02 15.33 34.04 15.66 32 16 C32.495 16.99 32.495 16.99 33 18 C21.2123834 14.63210954 9.34942723 8.98596909 0 1 C0 0.67 0 0.34 0 0 Z " fill="#1B5574" transform="translate(133,443)"/>
<path d="M0 0 C0.33 0 0.66 0 1 0 C1.47268272 24.86836297 1.47268272 24.86836297 -2.01171875 34.91796875 C-3.44634358 39.39195686 -3.81413106 43.9076459 -4.33984375 48.5625 C-5.02906563 52.15134767 -6.22331884 54.82424294 -8 58 C-8.98965019 55.03104944 -9.23779528 53.0913386 -9 50 C-8.34 49.34 -7.68 48.68 -7 48 C-6.56335722 45.72260824 -6.22217622 43.42633213 -5.9375 41.125 C-4.95896565 33.37759585 -4.95896565 33.37759585 -4 30 C-3.34 30 -2.68 30 -2 30 C-1.96241577 28.74340576 -1.96241577 28.74340576 -1.92407227 27.46142578 C-1.82899643 24.35647744 -1.72975975 21.25169819 -1.62768555 18.14697266 C-1.56301749 16.14105193 -1.50316894 14.13497772 -1.44335938 12.12890625 C-1.40146484 10.87207031 -1.35957031 9.61523438 -1.31640625 8.3203125 C-1.27974854 7.15773926 -1.24309082 5.99516602 -1.20532227 4.79736328 C-1 2 -1 2 0 0 Z " fill="#C1975E" transform="translate(351,297)"/>
<path d="M0 0 C0.66 0.33 1.32 0.66 2 1 C2.4140625 4.16015625 2.4140625 4.16015625 2.625 8.0625 C2.69976562 9.35285156 2.77453125 10.64320313 2.8515625 11.97265625 C2.90054687 12.97167969 2.94953125 13.97070312 3 15 C3.66 14.67 4.32 14.34 5 14 C6.11241681 17.33725042 6.08987444 19.6465402 5 23 C4.38125 23.598125 3.7625 24.19625 3.125 24.8125 C0.14433458 27.88083205 -0.65257037 30.9577111 -2 35 C-3.17793502 31.4993762 -2.80383181 28.97373853 -2.125 25.375 C-0.70353476 16.951858 -0.36339547 8.52066754 0 0 Z " fill="#2C8AB5" transform="translate(352,298)"/>
<path d="M0 0 C24.7 11.4 24.7 11.4 29 20 C28.443125 19.71125 27.88625 19.4225 27.3125 19.125 C24.97193593 17.94039559 24.97193593 17.94039559 22.3125 17 C20 16 20 16 19 14 C16.97536745 13.34786708 16.97536745 13.34786708 15 13 C15 12.34 15 11.68 15 11 C13.1746875 10.4121875 13.1746875 10.4121875 11.3125 9.8125 C7.17994156 8.42838952 3.08386165 6.95938008 -1 5.4375 C-2.11375 5.02371094 -3.2275 4.60992187 -4.375 4.18359375 C-7 3 -7 3 -8 1 C-5.36 1.33 -2.72 1.66 0 2 C0 1.34 0 0.68 0 0 Z " fill="#44A2AE" transform="translate(302,122)"/>
<path d="M0 0 C1.98 0 3.96 0 6 0 C6 2.125 6 2.125 5 5 C3.18966353 6.60266695 1.26463029 7.93222713 -0.72265625 9.30859375 C-4.53172636 12.13762867 -7.73148622 15.57501481 -11 19 C-11.99 18.01 -12.98 17.02 -14 16 C-15.98 16.66 -17.96 17.32 -20 18 C-16.63509283 14.43331594 -12.66218824 12.01862768 -8.5625 9.375 C-7.79873047 8.87226562 -7.03496094 8.36953125 -6.24804688 7.8515625 C-5.50748047 7.37203125 -4.76691406 6.8925 -4.00390625 6.3984375 C-2.99565796 5.74367432 -2.99565796 5.74367432 -1.96704102 5.07568359 C0 4 0 4 2.18774414 3.47509766 C2.78578857 3.31831543 3.38383301 3.1615332 4 3 C4.33 2.34 4.66 1.68 5 1 C3.35 1 1.7 1 0 1 C0 0.67 0 0.34 0 0 Z " fill="#EF6F19" transform="translate(499,39)"/>
<path d="M0 0 C17.82 0 35.64 0 54 0 C54 0.33 54 0.66 54 1 C39.8992226 3.53090876 12.42462616 8.2830841 0 0 Z " fill="#D3704A" transform="translate(176,458)"/>
<path d="M0 0 C1.32 0.66 2.64 1.32 4 2 C2.31480498 2.941637 0.62671303 3.8780901 -1.0625 4.8125 C-2.00222656 5.33457031 -2.94195312 5.85664063 -3.91015625 6.39453125 C-10.31473922 9.72232341 -16.4160902 11.73342883 -23.4375 13.1875 C-24.67790039 13.45336914 -24.67790039 13.45336914 -25.94335938 13.72460938 C-27.96088887 14.15610412 -29.98026396 14.5789545 -32 15 C-30.25404477 11.50808954 -26.47318548 10.40012789 -23 9 C-20.0575747 8.14179262 -17.10674954 7.41877824 -14.12109375 6.7265625 C-9.37669532 5.6221093 -4.69311351 4.30261615 0 3 C0 2.01 0 1.02 0 0 Z " fill="#055F8E" transform="translate(294,450)"/>
<path d="M0 0 C-11.19523135 3.38460483 -22.51183853 6.12199103 -34.25390625 6.1328125 C-35.24982033 6.13424759 -35.24982033 6.13424759 -36.26585388 6.13571167 C-37.65827531 6.13638716 -39.0507 6.1345773 -40.44311523 6.13037109 C-42.56045667 6.12500518 -44.67758685 6.13034197 -46.79492188 6.13671875 C-48.15625046 6.13605802 -49.51757892 6.13477697 -50.87890625 6.1328125 C-52.1016626 6.13168457 -53.32441895 6.13055664 -54.58422852 6.12939453 C-57.81154347 6.00713902 -60.83220596 5.60964522 -64 5 C-64 4.67 -64 4.34 -64 4 C-63.10917725 4.01047363 -62.21835449 4.02094727 -61.30053711 4.03173828 C-57.91769702 4.06632183 -54.53505126 4.09113777 -51.15209961 4.10986328 C-49.70252472 4.11977108 -48.25296897 4.13330114 -46.8034668 4.15087891 C-33.04914998 4.3131999 -20.07197099 3.03545394 -6.70703125 -0.51171875 C-4.02324535 -0.99580712 -2.53839285 -0.90267431 0 0 Z " fill="#666875" transform="translate(247,456)"/>
<path d="M0 0 C17.60500462 3.48839906 17.60500462 3.48839906 24.6640625 6.88671875 C27.54730495 8.26083932 30.48466681 9.47059606 33.4375 10.6875 C38.79562044 12.89781022 38.79562044 12.89781022 41 14 C41 14.66 41 15.32 41 16 C42.65 16.33 44.3 16.66 46 17 C46 17.33 46 17.66 46 18 C42.93606987 18.25532751 41.36766788 18.21861333 38.6875 16.625 C38.130625 16.08875 37.57375 15.5525 37 15 C37 14.34 37 13.68 37 13 C36.21496094 12.90203125 35.42992187 12.8040625 34.62109375 12.703125 C28.07306937 11.77113625 23.5453377 10.54901613 18 7 C16.02253397 6.26919734 14.01927511 5.60578253 12 5 C10.43523349 4.50713895 8.87284913 4.00667233 7.3125 3.5 C6.19294922 3.14421875 6.19294922 3.14421875 5.05078125 2.78125 C3 2 3 2 0 0 Z " fill="#D59A52" transform="translate(276,119)"/>
<path d="M0 0 C0 0.33 0 0.66 0 1 C-11.88 1.66 -23.76 2.32 -36 3 C-36 3.66 -36 4.32 -36 5 C-42.20514474 7.13619737 -47.42684522 8.36517527 -54 8 C-50.78538134 5.8569209 -48.07198097 5.01544456 -44.375 3.9375 C-40.38194837 3.04515337 -40.38194837 3.04515337 -37 1 C-24.72821052 -0.35794392 -12.32575751 -0.11685739 0 0 Z " fill="#739A94" transform="translate(258,115)"/>
<path d="M0 0 C0.66 0.99 1.32 1.98 2 3 C-8.67258023 8.31051094 -18.13996009 9.33460928 -30 9 C-29.67 8.34 -29.34 7.68 -29 7 C-26.375 6.65625 -26.375 6.65625 -23 6.5 C-17.44501746 6.1631488 -12.38635364 5.36941194 -7 4 C-7 3.01 -7 2.02 -7 1 C-4.46578263 -0.26710868 -2.80561762 -0.28056176 0 0 Z " fill="#0B74A3" transform="translate(106,427)"/>
<path d="M0 0 C0.66 0.33 1.32 0.66 2 1 C0.56502257 4.67323026 -1.001535 5.84166413 -4.5 7.5625 C-7.81671801 9.20470616 -8.87745048 9.81617571 -11 13 C-12.66666667 13.66666667 -14.33333333 14.33333333 -16 15 C-16.99 16.485 -16.99 16.485 -18 18 C-19.32 17.67 -20.64 17.34 -22 17 C-20.64994683 13.79690775 -19.42090483 12.30461207 -16.4453125 10.52734375 C-15.74792969 10.10259766 -15.05054688 9.67785156 -14.33203125 9.24023438 C-13.60371094 8.81033203 -12.87539063 8.38042969 -12.125 7.9375 C-10.68916467 7.07317337 -9.25424068 6.20733069 -7.8203125 5.33984375 C-6.81919434 4.7363208 -6.81919434 4.7363208 -5.79785156 4.12060547 C-3.7725001 2.85819873 -1.86494727 1.48902858 0 0 Z " fill="#07618E" transform="translate(43,361)"/>
<path d="M0 0 C-1.28753286 4.32152118 -2.93264457 7.83881582 -5.375 11.625 C-5.96023437 12.54539062 -6.54546875 13.46578125 -7.1484375 14.4140625 C-8.91868125 16.88642824 -10.78671606 18.92321816 -13 21 C-14.231394 17.30581799 -13.64432764 14.7943739 -13 11 C-12.34 11 -11.68 11 -11 11 C-10.67 10.34 -10.34 9.68 -10 9 C-8.68 9.33 -7.36 9.66 -6 10 C-5.87882813 9.36191406 -5.75765625 8.72382813 -5.6328125 8.06640625 C-5.38144531 6.82697266 -5.38144531 6.82697266 -5.125 5.5625 C-4.96257812 4.73878906 -4.80015625 3.91507812 -4.6328125 3.06640625 C-4.42398438 2.38449219 -4.21515625 1.70257813 -4 1 C-2 0 -2 0 0 0 Z " fill="#0973A4" transform="translate(156,382)"/>
<path d="M0 0 C8.01519169 -0.43719227 15.42171932 1.11934014 22 6 C22 6.66 22 7.32 22 8 C22.66 8.33 23.32 8.66 24 9 C17.79011871 8.55643705 13.39459439 7.08467498 8 4 C8 3.34 8 2.68 8 2 C5.36 2 2.72 2 0 2 C0 1.34 0 0.68 0 0 Z " fill="#1CB7DD" transform="translate(280,116)"/>
<path d="M0 0 C13.365 1.485 13.365 1.485 27 3 C27 3.33 27 3.66 27 4 C18.3725342 4.20705918 10.40371809 4.21462689 2 2 C2.44472656 2.97582031 2.88945313 3.95164063 3.34765625 4.95703125 C3.91977851 6.24196157 4.49136533 7.5271304 5.0625 8.8125 C5.50432617 9.77639648 5.50432617 9.77639648 5.95507812 10.75976562 C8.11328125 15.66015625 8.11328125 15.66015625 7 19 C5.82379175 16.58757287 4.6589044 14.17072309 3.5 11.75 C2.99919922 10.72712891 2.99919922 10.72712891 2.48828125 9.68359375 C0.80625256 6.1479008 0 3.98070714 0 0 Z " fill="#085079" transform="translate(34,231)"/>
<path d="M0 0 C0.33 0.66 0.66 1.32 1 2 C-0.08667969 3.06541016 -0.08667969 3.06541016 -1.1953125 4.15234375 C-3.87295559 6.87100923 -6.37001257 9.68536588 -8.875 12.5625 C-13.53427643 17.71405117 -17.87902039 21.86064326 -25 23 C-25 22.34 -25 21.68 -25 21 C-23.48828125 19.9140625 -23.48828125 19.9140625 -21.3125 18.625 C-16.09317214 15.30058735 -11.77494923 11.24617414 -7.34301758 6.96337891 C-3.19789533 3 -3.19789533 3 -1 3 C-0.67 2.01 -0.34 1.02 0 0 Z " fill="#516E7C" transform="translate(308,414)"/>
<path d="M0 0 C14.46795482 -0.26628138 28.61489761 0.4338212 43 2 C43 2.33 43 2.66 43 3 C12.66709003 3.41277905 12.66709003 3.41277905 0 1 C0 0.67 0 0.34 0 0 Z " fill="#074F73" transform="translate(193,468)"/>
<path d="M0 0 C0.66 0.33 1.32 0.66 2 1 C1.67 1.66 1.34 2.32 1 3 C2.485 3.0928125 2.485 3.0928125 4 3.1875 C8.05248092 3.74420445 10.73888559 5.53969953 14.078125 7.8046875 C16.13314677 9.19099642 16.13314677 9.19099642 19.3125 10.0625 C22.39929697 11.13928964 23.34387634 12.23979389 25 15 C20.24206222 14.47683894 17.1104949 13.14635293 13.0625 10.625 C8.78203609 8.02900259 4.66452233 5.80220181 0 4 C0 2.68 0 1.36 0 0 Z " fill="#B7674B" transform="translate(129,437)"/>
<path d="M0 0 C0.99 0.33 1.98 0.66 3 1 C2.71749338 3.58463502 2.4243774 6.16731135 2.125 8.75 C2.00705078 9.84441406 2.00705078 9.84441406 1.88671875 10.9609375 C1.44863824 14.66777257 1.0013785 17.80452172 -1 21 C-1.94617513 14.73158976 -2.62907043 8.33335316 -2 2 C-1.34 1.34 -0.68 0.68 0 0 Z " fill="#1089B7" transform="translate(168,332)"/>
<path d="M0 0 C0 0.66 0 1.32 0 2 C-2.31 2.66 -4.62 3.32 -7 4 C-5.35 4 -3.7 4 -2 4 C-2 4.99 -2 5.98 -2 7 C-1.01 7.33 -0.02 7.66 1 8 C-1.72236789 9.36118395 -3.19776129 8.41390806 -5.98046875 7.546875 C-9.28247303 6.65271523 -12.60187681 6.35769718 -16 6 C-16.33 5.01 -16.66 4.02 -17 3 C-14.54212344 2.49766027 -12.08374976 1.99803143 -9.625 1.5 C-8.57699219 1.28537109 -8.57699219 1.28537109 -7.5078125 1.06640625 C-2.2265625 0 -2.2265625 0 0 0 Z " fill="#BD6E29" transform="translate(329,87)"/>
<path d="M0 0 C-6.72994109 5.60828424 -16.20483628 10 -25 10 C-25 9.34 -25 8.68 -25 8 C-24.05898437 7.67386719 -23.11796875 7.34773438 -22.1484375 7.01171875 C-20.90320313 6.57472656 -19.65796875 6.13773437 -18.375 5.6875 C-17.14523438 5.25824219 -15.91546875 4.82898438 -14.6484375 4.38671875 C-11.00810103 3.07548201 -11.00810103 3.07548201 -7.71875 1.34375 C-4.85476378 -0.07178342 -3.14513872 -0.27751224 0 0 Z " fill="#D26C3F" transform="translate(268,445)"/>
<path d="M0 0 C0.66 0 1.32 0 2 0 C2 1.32 2 2.64 2 4 C2.66 4 3.32 4 4 4 C4.28875 4.598125 4.5775 5.19625 4.875 5.8125 C6.04742026 8.19327792 6.04742026 8.19327792 8 11 C8.598125 10.484375 9.19625 9.96875 9.8125 9.4375 C10.8953125 8.7259375 10.8953125 8.7259375 12 8 C12.99 8.33 13.98 8.66 15 9 C14.34 9.804375 13.68 10.60875 13 11.4375 C10.89745486 13.58961915 10.89745486 13.58961915 11 15 C9.35 15 7.7 15 6 15 C5.17988688 13.44148245 4.36923787 11.87798284 3.5625 10.3125 C3.11003906 9.44238281 2.65757813 8.57226562 2.19140625 7.67578125 C1.04008072 5.09001736 0.43679247 2.78643472 0 0 Z " fill="#066EA6" transform="translate(52,275)"/>
<path d="M0 0 C0.66 0 1.32 0 2 0 C2.66 2.97 3.32 5.94 4 9 C3.34 9 2.68 9 2 9 C1.34 8.34 0.68 7.68 0 7 C-0.61875 7.78375 -1.2375 8.5675 -1.875 9.375 C-4 12 -4 12 -6 14 C-5.67 14.66 -5.34 15.32 -5 16 C-7.31 15.34 -9.62 14.68 -12 14 C-12 13.34 -12 12.68 -12 12 C-10.948125 11.690625 -9.89625 11.38125 -8.8125 11.0625 C-3.81375708 8.9898505 -2.14258289 4.7097329 0 0 Z " fill="#AB6C24" transform="translate(394,48)"/>
<path d="M0 0 C1 2 1 2 0.44140625 4.05859375 C0.15136719 4.84363281 -0.13867188 5.62867188 -0.4375 6.4375 C-1.46835645 9.24346352 -2 10.97296354 -2 14 C-1.32453125 13.84402344 -0.6490625 13.68804687 0.046875 13.52734375 C1.38492188 13.23537109 1.38492188 13.23537109 2.75 12.9375 C3.63171875 12.74027344 4.5134375 12.54304687 5.421875 12.33984375 C7.98679028 12.00174128 9.57091639 12.18841365 12 13 C8.56464151 16.17175425 5.84669909 16.45766505 1.25 16.6875 C-0.50570312 16.78611328 -0.50570312 16.78611328 -2.296875 16.88671875 C-3.63492188 16.94279297 -3.63492188 16.94279297 -5 17 C-4.46246904 10.81839396 -2.45417612 5.673142 0 0 Z " fill="#05527C" transform="translate(111,217)"/>
<path d="M0 0 C-0.33 0.66 -0.66 1.32 -1 2 C1.64 2 4.28 2 7 2 C7 2.99 7 3.98 7 5 C3.53058454 4.54177532 0.32604951 4.10868317 -3 3 C-4.77166975 2.85164052 -6.54767612 2.75229982 -8.32421875 2.68359375 C-9.35224609 2.64169922 -10.38027344 2.59980469 -11.43945312 2.55664062 C-13.04723633 2.49766602 -13.04723633 2.49766602 -14.6875 2.4375 C-15.77095703 2.39431641 -16.85441406 2.35113281 -17.97070312 2.30664062 C-20.64700791 2.20053162 -23.32340526 2.09847639 -26 2 C-26 1.67 -26 1.34 -26 1 C-22.23007936 0.63562934 -18.45898651 0.28525753 -14.6875 -0.0625 C-13.61564453 -0.16626953 -12.54378906 -0.27003906 -11.43945312 -0.37695312 C-9.89741211 -0.51713867 -9.89741211 -0.51713867 -8.32421875 -0.66015625 C-7.37635498 -0.74918213 -6.42849121 -0.83820801 -5.4519043 -0.92993164 C-3 -1 -3 -1 0 0 Z " fill="#DF6124" transform="translate(246,154)"/>
<path d="M0 0 C0.33 0.99 0.66 1.98 1 3 C1.66 3 2.32 3 3 3 C3.21192221 8.19209404 2.5912689 12.126739 1 17 C0.01 16.67 -0.98 16.34 -2 16 C-1.85975781 13.52039864 -1.7130815 11.04147598 -1.5625 8.5625 C-1.52318359 7.85544922 -1.48386719 7.14839844 -1.44335938 6.41992188 C-1.11328125 1.11328125 -1.11328125 1.11328125 0 0 Z " fill="#1D9FC9" transform="translate(176,275)"/>
<path d="M0 0 C-0.99 0 -1.98 0 -3 0 C-3.33 0.99 -3.66 1.98 -4 3 C-5.98 3.33 -7.96 3.66 -10 4 C-10.33 4.99 -10.66 5.98 -11 7 C-14.3 7.33 -17.6 7.66 -21 8 C-20.67 7.34 -20.34 6.68 -20 6 C-18.68 6 -17.36 6 -16 6 C-16 5.34 -16 4.68 -16 4 C-14.08959948 3.1319092 -12.17139263 2.28098217 -10.25 1.4375 C-9.18265625 0.96183594 -8.1153125 0.48617187 -7.015625 -0.00390625 C-4.01630163 -0.9946154 -2.86578759 -1.16161779 0 0 Z " fill="#A58462" transform="translate(204,124)"/>
<path d="M0 0 C1.63002818 4.87907085 -0.23081964 8.38610231 -2 13 C-2.24105469 13.66 -2.48210937 14.32 -2.73046875 15 C-4.21215866 18.79836528 -5.91381185 21.33949297 -9 24 C-8.54554036 22.58208592 -8.08625056 21.16571954 -7.625 19.75 C-7.24214844 18.56664062 -7.24214844 18.56664062 -6.8515625 17.359375 C-6.04738534 15.13128784 -5.0576061 13.1152122 -4 11 C-3.505 9.2675 -3.505 9.2675 -3 7.5 C-2.20946936 4.73314277 -1.39390144 2.48910971 0 0 Z " fill="#4D7B8C" transform="translate(343,353)"/>
<path d="M0 0 C0.99 0 1.98 0 3 0 C3.25060425 1.89311883 3.47460633 3.78977039 3.6875 5.6875 C3.81511719 6.74324219 3.94273437 7.79898437 4.07421875 8.88671875 C3.98856356 12.47972869 3.13719363 14.15568551 1 17 C0.67 17 0.34 17 0 17 C0 11.39 0 5.78 0 0 Z " fill="#1A97D5" transform="translate(354,297)"/>
<path d="M0 0 C0.66 0.33 1.32 0.66 2 1 C-0.82378304 5.53149945 -3.91706367 9.17284627 -7.75 12.875 C-8.25660156 13.37257812 -8.76320313 13.87015625 -9.28515625 14.3828125 C-10.51885307 15.59323202 -11.75877784 16.79729853 -13 18 C-13.99 17.67 -14.98 17.34 -16 17 C-15.55084229 16.5560791 -15.10168457 16.1121582 -14.63891602 15.65478516 C-12.61084393 13.64746397 -10.58663584 11.63629001 -8.5625 9.625 C-7.85544922 8.92632812 -7.14839844 8.22765625 -6.41992188 7.5078125 C-5.74638672 6.8375 -5.07285156 6.1671875 -4.37890625 5.4765625 C-3.7557251 4.85861816 -3.13254395 4.24067383 -2.49047852 3.60400391 C-0.90951849 2.05339933 -0.90951849 2.05339933 0 0 Z " fill="#D8802C" transform="translate(342,155)"/>
<path d="M0 0 C2.97 0 5.94 0 9 0 C9 1.32 9 2.64 9 4 C6.54137599 4.05383848 4.0839245 4.09359038 1.625 4.125 C0.57699219 4.15013672 0.57699219 4.15013672 -0.4921875 4.17578125 C-2.32897486 4.19344267 -4.16601963 4.10303261 -6 4 C-6.66 3.34 -7.32 2.68 -8 2 C-5.36 1.67 -2.72 1.34 0 1 C0 0.67 0 0.34 0 0 Z " fill="#0376AF" transform="translate(199,463)"/>
<path d="M0 0 C-0.66 0.66 -1.32 1.32 -2 2 C-3.175625 1.9690625 -3.175625 1.9690625 -4.375 1.9375 C-7.05486108 1.7303185 -7.05486108 1.7303185 -8.8125 3.5 C-12.16224716 5.79696948 -14.99713654 5.20014317 -19 5 C-14.25914449 0.09566671 -6.54489142 -2.18163047 0 0 Z " fill="#1DABCA" transform="translate(171,217)"/>
<path d="M0 0 C0.66 0 1.32 0 2 0 C1.53199289 4.05606165 1.12046792 7.46588679 -1 11 C-1.66 11 -2.32 11 -3 11 C-3.19335938 11.62648437 -3.38671875 12.25296875 -3.5859375 12.8984375 C-3.84632812 13.71570313 -4.10671875 14.53296875 -4.375 15.375 C-4.63023438 16.18710938 -4.88546875 16.99921875 -5.1484375 17.8359375 C-6 20 -6 20 -8 22 C-7.76068157 15.53840246 -5.9353038 11.6715644 -2.375 6.296875 C-1.08466073 4.1414219 -0.44987656 2.45182723 0 0 Z " fill="#967569" transform="translate(122,192)"/>
<path d="M0 0 C0 3 0 3 -1.12988281 4.50219727 C-1.64905273 5.01838623 -2.16822266 5.5345752 -2.703125 6.06640625 C-3.27160156 6.63423828 -3.84007812 7.20207031 -4.42578125 7.78710938 C-5.02777344 8.37298828 -5.62976563 8.95886719 -6.25 9.5625 C-7.12978516 10.44711914 -7.12978516 10.44711914 -8.02734375 11.34960938 C-10.88989619 14.17678195 -13.30346026 16.32089551 -17 18 C-15.40425499 14.02941094 -12.63330816 11.37060046 -9.625 8.4375 C-9.14289063 7.95603516 -8.66078125 7.47457031 -8.1640625 6.97851562 C-5.58143857 4.4274727 -2.96958619 2.08996942 0 0 Z " fill="#411602" transform="translate(160,180)"/>
<path d="M0 0 C0.99 0.33 1.98 0.66 3 1 C3 2.65 3 4.3 3 6 C3.66 5.67 4.32 5.34 5 5 C5.12375 6.03125 5.2475 7.0625 5.375 8.125 C5.93889814 11.62116846 6.78682059 14.68397627 8 18 C3.59202351 14.40831545 0.86364449 9.31011032 -1 4 C-0.63671875 1.6875 -0.63671875 1.6875 0 0 Z " fill="#0B75A9" transform="translate(12,394)"/>
<path d="M0 0 C0.99 0.33 1.98 0.66 3 1 C3 1.66 3 2.32 3 3 C4.423125 2.9690625 4.423125 2.9690625 5.875 2.9375 C9 3 9 3 11 4 C17.23695676 4.56699607 22.98608375 3.59233716 29 2 C28 4 28 4 25.86328125 5.11328125 C18.12786987 7.50883157 8.91507588 6.26641214 1 5 C0.67 3.35 0.34 1.7 0 0 Z " fill="#05557F" transform="translate(62,384)"/>
<path d="M0 0 C1.1875 1.6875 1.1875 1.6875 2 4 C1.05988318 5.70116376 0.05104383 7.36504293 -1 9 C-1.165 10.03125 -1.33 11.0625 -1.5 12.125 C-2.04169097 15.2397231 -2.49165248 16.16697682 -5 18 C-5.99 18.33 -6.98 18.66 -8 19 C-6.21127475 14.42419121 -4.17969187 9.98271532 -2.12109375 5.5234375 C-0.93154689 2.95494272 -0.93154689 2.95494272 0 0 Z " fill="#0E739B" transform="translate(112,357)"/>
<path d="M0 0 C0.33 0.66 0.66 1.32 1 2 C0.39671875 2.73605469 -0.2065625 3.47210938 -0.828125 4.23046875 C-1.62734375 5.20628906 -2.4265625 6.18210938 -3.25 7.1875 C-4.03890625 8.15042969 -4.8278125 9.11335937 -5.640625 10.10546875 C-6.41921875 11.06066406 -7.1978125 12.01585937 -8 13 C-8.7425 13.8971875 -9.485 14.794375 -10.25 15.71875 C-11.93608218 17.91667855 -12.59922389 19.29476125 -13 22 C-13.99 22 -14.98 22 -16 22 C-14.58050389 17.80223879 -12.536141 14.93778052 -9.6875 11.5625 C-8.48867187 10.13164062 -8.48867187 10.13164062 -7.265625 8.671875 C-6.51796875 7.79015625 -5.7703125 6.9084375 -5 6 C-3.97803856 4.77177111 -2.95692226 3.54283721 -1.9375 2.3125 C-1.298125 1.549375 -0.65875 0.78625 0 0 Z " fill="#0F6484" transform="translate(103,158)"/>
<path d="M0 0 C-2.3000993 2.3000993 -3.31376669 2.42552031 -6.4375 3 C-9.71405634 3.60457053 -11.1304565 4.086971 -14 6 C-16.48046875 6.4140625 -16.48046875 6.4140625 -19.1875 6.625 C-20.08855469 6.69976562 -20.98960937 6.77453125 -21.91796875 6.8515625 C-22.60503906 6.90054687 -23.29210937 6.94953125 -24 7 C-24.33 6.34 -24.66 5.68 -25 5 C-24.14277344 4.80664062 -23.28554687 4.61328125 -22.40234375 4.4140625 C-15.15346081 2.79624378 -15.15346081 2.79624378 -8 0.8125 C-5.17226273 0.04665449 -2.90990361 -0.17635779 0 0 Z " fill="#186D9F" transform="translate(252,455)"/>
<path d="M0 0 C0.66 0 1.32 0 2 0 C3.3540932 1.98600337 4.68457624 3.98817543 6 6 C7.31200404 7.35432675 8.64631404 8.68733482 10 10 C10.88404891 11.05498283 11.75866684 12.11792153 12.625 13.1875 C14.69169295 16.01036127 14.69169295 16.01036127 17 17 C17 17.66 17 18.32 17 19 C9.73323953 15.73154442 4.17013721 8.64472413 0 2 C0 1.34 0 0.68 0 0 Z " fill="#034971" transform="translate(14,406)"/>
<path d="M0 0 C0.33 0.66 0.66 1.32 1 2 C-0.25864009 4.42404758 -1.55781935 6.69059444 -3 9 C-3.99 10.670625 -3.99 10.670625 -5 12.375 C-7 15 -7 15 -9.25 15.875 C-9.8275 15.91625 -10.405 15.9575 -11 16 C-9.38677027 12.44413762 -7.24743046 9.45249622 -4.9375 6.3125 C-4.22464844 5.33925781 -3.51179688 4.36601562 -2.77734375 3.36328125 C-1 1 -1 1 0 0 Z " fill="#2397BC" transform="translate(371,212)"/>
<path d="M0 0 C0 0.66 0 1.32 0 2 C-0.66 2 -1.32 2 -2 2 C-2.24492187 2.58265625 -2.48984375 3.1653125 -2.7421875 3.765625 C-4.20435874 6.36302236 -5.84740414 7.83975831 -8.125 9.75 C-9.21167969 10.67039063 -9.21167969 10.67039063 -10.3203125 11.609375 C-10.87460938 12.06828125 -11.42890625 12.5271875 -12 13 C-12.66 12.67 -13.32 12.34 -14 12 C-3.89320388 0 -3.89320388 0 0 0 Z " fill="#D37524" transform="translate(222,190)"/>
<path d="M0 0 C0.33 0 0.66 0 1 0 C3.25871817 6.21147497 3.6790596 12.41911359 3 19 C2.34 19.66 1.68 20.32 1 21 C-0.10087193 13.98194143 -0.09733092 7.09434233 0 0 Z " fill="#F2932B" transform="translate(347,306)"/>
<path d="M0 0 C0.33 0 0.66 0 1 0 C1.12117188 0.92683594 1.24234375 1.85367187 1.3671875 2.80859375 C1.53476562 4.00613281 1.70234375 5.20367187 1.875 6.4375 C2.03742188 7.63246094 2.19984375 8.82742188 2.3671875 10.05859375 C2.57601563 11.02925781 2.78484375 11.99992187 3 13 C3.66 13.33 4.32 13.66 5 14 C5 17.63 5 21.26 5 25 C4.67 25 4.34 25 4 25 C3.67 22.36 3.34 19.72 3 17 C2.01 17.33 1.02 17.66 0 18 C0 12.06 0 6.12 0 0 Z " fill="#2698CF" transform="translate(353,281)"/>
<path d="M0 0 C0.33 0.66 0.66 1.32 1 2 C-1.72827365 2.50534727 -4.45744694 3.00443845 -7.1875 3.5 C-7.95642578 3.64308594 -8.72535156 3.78617187 -9.51757812 3.93359375 C-13.39421773 4.63238715 -17.041471 5.19039017 -21 5 C-18.69989124 2.69989124 -17.62478923 2.54115246 -14.5 1.9375 C-4.28455285 -0.06910569 -4.28455285 -0.06910569 0 0 Z " fill="#28AFD7" transform="translate(218,110)"/>
<path d="M0 0 C-2.26562546 1.50842171 -4.53686163 3.00682251 -6.8125 4.5 C-7.45509766 4.92925781 -8.09769531 5.35851562 -8.75976562 5.80078125 C-13.66015625 9 -13.66015625 9 -17 9 C-16.67 8.01 -16.34 7.02 -16 6 C-14.34561387 5.30341637 -12.67745682 4.63903117 -11 4 C-10.525625 3.505 -10.05125 3.01 -9.5625 2.5 C-6.91762631 -0.03907874 -3.40189846 -1.70094923 0 0 Z " fill="#2A749D" transform="translate(289,436)"/>
<path d="M0 0 C3.61181604 3.27790785 4.94694555 7.05543368 6.75 11.5 C7.07871094 12.27214844 7.40742187 13.04429687 7.74609375 13.83984375 C8.05160156 14.58363281 8.35710938 15.32742188 8.671875 16.09375 C8.9512793 16.77115234 9.23068359 17.44855469 9.51855469 18.14648438 C10 20 10 20 9 23 C0 5.52427184 0 5.52427184 0 0 Z " fill="#044C76" transform="translate(42,250)"/>
<path d="M0 0 C1.14319652 3.35337646 0.85351312 5.20893732 -0.375 8.5 C-1.57440281 11.73969248 -1.57440281 11.73969248 -2.3515625 15.09375 C-3.23505074 17.69099254 -4.74274762 18.54370814 -7 20 C-5.07443364 13.14381674 -2.7527517 6.56747868 0 0 Z " fill="#06547D" transform="translate(69,212)"/>
<path d="M0 0 C0.66 0.33 1.32 0.66 2 1 C-1.87244457 6.08991767 -6.03046763 10.4185806 -12 13 C-12.66 12.67 -13.32 12.34 -14 12 C-9.38 8.04 -4.76 4.08 0 0 Z " fill="#D0832E" transform="translate(414,91)"/>
<path d="M0 0 C0.66 0.33 1.32 0.66 2 1 C-9.25 12.25 -9.25 12.25 -14 14 C-9.72706118 8.76564995 -5.18419194 4.32893185 0 0 Z M-15 14 C-14.67 14.66 -14.34 15.32 -14 16 C-14.66 15.67 -15.32 15.34 -16 15 C-15.67 14.67 -15.34 14.34 -15 14 Z " fill="#0781B2" transform="translate(140,145)"/>
<path d="M0 0 C4.99005032 0.46781722 9.15195521 2.88919744 13 6 C13.33 6.99 13.66 7.98 14 9 C8.40440609 7.60110152 4.29704147 4.74082545 0 1 C0 0.67 0 0.34 0 0 Z " fill="#57565E" transform="translate(133,443)"/>
<path d="M0 0 C-1 2 -1 2 -3.3125 3.75 C-6.25440881 6.21299342 -7.91520668 8.80331692 -10 12 C-10.99 12.66 -11.98 13.32 -13 14 C-12.56494141 13.13761719 -12.56494141 13.13761719 -12.12109375 12.2578125 C-11.40884564 10.82338947 -10.71166606 9.38130773 -10.03515625 7.9296875 C-9.71417969 7.25164062 -9.39320313 6.57359375 -9.0625 5.875 C-8.74410156 5.19179687 -8.42570312 4.50859375 -8.09765625 3.8046875 C-5.90740374 0.20363178 -4.08831773 0 0 0 Z " fill="#299FC9" transform="translate(365,227)"/>
<path d="M0 0 C1.32 0 2.64 0 4 0 C4 1.65 4 3.3 4 5 C3.67 4.01 3.34 3.02 3 2 C2.46375 2.33 1.9275 2.66 1.375 3 C-1.54655254 4.23012738 -3.85402571 4.06693562 -7 4 C-7.99 4.33 -8.98 4.66 -10 5 C-12.1875 4.5625 -12.1875 4.5625 -14 4 C-10.90477312 2.5491124 -8.12124318 1.81342999 -4.75 1.4375 C-1.21082486 1.41762589 -1.21082486 1.41762589 0 0 Z " fill="#28B8D8" transform="translate(187,211)"/>
<path d="M0 0 C5.33595134 -0.27131956 8.61383821 -0.4266889 13 3 C13 3.33 13 3.66 13 4 C8.4932782 4.17673419 5.03374456 4.13551182 1 2 C0.67 1.34 0.34 0.68 0 0 Z " fill="#0D70A3" transform="translate(164,458)"/>
<path d="M0 0 C-0.33 2.64 -0.66 5.28 -1 8 C-1.33 8 -1.66 8 -2 8 C-2 6.02 -2 4.04 -2 2 C-2.99 2.495 -2.99 2.495 -4 3 C-7.86061033 4.28687011 -10.94150283 4.13757618 -15 4 C-10.09731431 0.73154287 -5.86826297 -0.27944109 0 0 Z " fill="#1B859E" transform="translate(193,209)"/>
<path d="M0 0 C1.32 0.66 2.64 1.32 4 2 C-8.88231668 9.65343984 -8.88231668 9.65343984 -14.19921875 8.5390625 C-14.79347656 8.36117188 -15.38773437 8.18328125 -16 8 C-13.70967689 7.16280617 -11.41789043 6.3301071 -9.125 5.5 C-8.14853516 5.14228516 -8.14853516 5.14228516 -7.15234375 4.77734375 C-2.2265625 3 -2.2265625 3 0 3 C0 2.01 0 1.02 0 0 Z " fill="#0F78A9" transform="translate(294,450)"/>
<path d="M0 0 C1.2065625 0.0309375 1.2065625 0.0309375 2.4375 0.0625 C2.4375 1.0525 2.4375 2.0425 2.4375 3.0625 C1.17331754 3.76215443 -0.09915402 4.44684763 -1.375 5.125 C-2.08269531 5.50785156 -2.79039063 5.89070313 -3.51953125 6.28515625 C-5.5625 7.0625 -5.5625 7.0625 -8.5625 6.0625 C-2.5625 0.0625 -2.5625 0.0625 0 0 Z " fill="#0773A7" transform="translate(119.5625,419.9375)"/>
<path d="M0 0 C0.33 0 0.66 0 1 0 C1 3.96 1 7.92 1 12 C3.475 12.99 3.475 12.99 6 14 C3 16 3 16 -2 16 C-1.34 10.72 -0.68 5.44 0 0 Z " fill="#CC5C18" transform="translate(234,355)"/>
<path d="M0 0 C0.90105469 0.11085937 1.80210937 0.22171875 2.73046875 0.3359375 C3.76107422 0.47902344 3.76107422 0.47902344 4.8125 0.625 C4.8125 0.955 4.8125 1.285 4.8125 1.625 C3.08568563 2.13306447 1.35592021 2.63110467 -0.375 3.125 C-1.81939453 3.54265625 -1.81939453 3.54265625 -3.29296875 3.96875 C-6.04095876 4.59177608 -8.38348416 4.74802812 -11.1875 4.625 C-7.52753383 0.79074972 -5.35712266 -0.69573022 0 0 Z " fill="#E16329" transform="translate(208.1875,155.375)"/>
<path d="M0 0 C1.98 0 3.96 0 6 0 C6 2.1875 6 2.1875 5 5 C2.53933287 7.0496546 -0.05423654 8.73494821 -3 10 C-3.66 9.67 -4.32 9.34 -5 9 C-5 8.34 -5 7.68 -5 7 C-2.03685715 4.94226191 0.54099741 3.86475065 4 3 C4.33 2.34 4.66 1.68 5 1 C3.35 1 1.7 1 0 1 C0 0.67 0 0.34 0 0 Z " fill="#C46217" transform="translate(499,39)"/>
<path d="M0 0 C1.32 0.33 2.64 0.66 4 1 C3.06409496 2.1055189 2.12620142 3.20935453 1.1875 4.3125 C0.66542969 4.92738281 0.14335937 5.54226563 -0.39453125 6.17578125 C-1.87172469 7.85424679 -3.40039131 9.43882034 -5 11 C-5.75 9.25 -5.75 9.25 -6 7 C-4.1875 4.75 -4.1875 4.75 -2 3 C-1.34 3 -0.68 3 0 3 C0 2.01 0 1.02 0 0 Z " fill="#188AB6" transform="translate(346,410)"/>
<path d="M0 0 C0.33 1.32 0.66 2.64 1 4 C0.01 4.33 -0.98 4.66 -2 5 C-2.0825 5.66 -2.165 6.32 -2.25 7 C-3.24759791 10.99039163 -5.07166683 14.38549643 -7 18 C-7.66 18 -8.32 18 -9 18 C-7.41579353 12.13843607 -4.37339097 4.37339097 0 0 Z " fill="#0C5A7A" transform="translate(81,188)"/>
<path d="M0 0 C2.6855594 2.6855594 3.06049974 5.37621328 4 9 C4.33 9 4.66 9 5 9 C5 10.98 5 12.96 5 15 C4.01 15.33 3.02 15.66 2 16 C1.34 10.72 0.68 5.44 0 0 Z " fill="#B06B29" transform="translate(346,114)"/>
<path d="M0 0 C4.17494967 0.4638833 6.22351059 0.8613598 9 4 C9.845625 4.495 10.69125 4.99 11.5625 5.5 C14 7 14 7 16 10 C15.443125 9.71125 14.88625 9.4225 14.3125 9.125 C11.97193593 7.94039559 11.97193593 7.94039559 9.3125 7 C7 6 7 6 6 4 C3.97536745 3.34786708 3.97536745 3.34786708 2 3 C2 2.34 2 1.68 2 1 C1.34 0.67 0.68 0.34 0 0 Z " fill="#4A746B" transform="translate(315,132)"/>
<path d="M0 0 C-6.10805977 3.28895526 -11.15106765 4.23617008 -18 4 C-12.23759526 0.15839684 -6.70842135 -0.23538321 0 0 Z " fill="#A98A63" transform="translate(222,119)"/>
<path d="M0 0 C3.3 0.99 6.6 1.98 10 3 C9.67 4.32 9.34 5.64 9 7 C7.68176698 6.40844669 6.37052949 5.80128537 5.0625 5.1875 C4.33160156 4.85105469 3.60070312 4.51460938 2.84765625 4.16796875 C1 3 1 3 0 0 Z " fill="#26516C" transform="translate(146,450)"/>
<path d="M0 0 C0.99 0.33 1.98 0.66 3 1 C2.02133662 2.14626322 1.04205413 3.29199788 0.0625 4.4375 C-0.48277344 5.07558594 -1.02804687 5.71367187 -1.58984375 6.37109375 C-2.36795695 7.26991149 -3.15936528 8.15936528 -4 9 C-5.66617115 9.04063832 -7.33388095 9.042721 -9 9 C-4.375 4.125 -4.375 4.125 -1 3 C-0.67 2.01 -0.34 1.02 0 0 Z " fill="#1382B0" transform="translate(337,420)"/>
<path d="M0 0 C0.99 0 1.98 0 3 0 C3.83041074 2.49123222 4.0538358 3.79542395 3.375 6.375 C2.86091182 9.97361725 4.32553043 11.86036956 6 15 C5.67 15.66 5.34 16.32 5 17 C1.33768793 11.67300062 0 6.40067258 0 0 Z " fill="#096190" transform="translate(9,389)"/>
<path d="M0 0 C0.33 -0.33 0.66 -0.66 1 -1 C2.66617115 -1.04063832 4.33388095 -1.042721 6 -1 C3.06605189 1.47212294 0.76207158 2.53887671 -3 3.25 C-3.845625 3.42015625 -4.69125 3.5903125 -5.5625 3.765625 C-8.01432071 4.00137699 -9.67413687 3.75375194 -12 3 C-7.5612514 -0.48758819 -5.4966961 -1.40613156 0 0 Z " fill="#147FA9" transform="translate(73,285)"/>
<path d="M0 0 C0.33 1.32 0.66 2.64 1 4 C-5.07439825 9.88183807 -5.07439825 9.88183807 -8.9375 10.375 C-9.618125 10.25125 -10.29875 10.1275 -11 10 C-11 9.01 -11 8.02 -11 7 C-9.02 7.495 -9.02 7.495 -7 8 C-4.69 5.36 -2.38 2.72 0 0 Z " fill="#C56F21" transform="translate(290,211)"/>
<path d="M0 0 C0.66 0.33 1.32 0.66 2 1 C1.55149342 2.81495662 1.09090429 4.62693134 0.625 6.4375 C0.36976563 7.44683594 0.11453125 8.45617187 -0.1484375 9.49609375 C-1 12 -1 12 -3 13 C-3.85637238 10.07406105 -4.38673104 7.91825712 -3.17578125 5.04296875 C-2.17852152 3.32488268 -1.09427085 1.65798613 0 0 Z " fill="#E57F23" transform="translate(352,111)"/>
<path d="M0 0 C1.32 0.33 2.64 0.66 4 1 C3.5875 1.37125 3.175 1.7425 2.75 2.125 C0.8085027 4.09201996 0.8085027 4.09201996 -1 7.125 C-3 10 -3 10 -6 11 C-4.54955729 6.89041233 -2.48889248 3.56741255 0 0 Z " fill="#BB661C" transform="translate(163,403)"/>
<path d="M0 0 C1.31157516 2.62315032 0.89649988 4.23033436 0.5625 7.125 C0.46066406 8.03507813 0.35882813 8.94515625 0.25390625 9.8828125 C0.12822266 10.93082031 0.12822266 10.93082031 0 12 C-0.99 11.67 -1.98 11.34 -3 11 C-3.36923077 3.49230769 -3.36923077 3.49230769 -1.5 1 C-1.005 0.67 -0.51 0.34 0 0 Z " fill="#2D9BC9" transform="translate(349,244)"/>
<path d="M0 0 C1.0169313 2.65498232 1.13022151 3.69155375 0.00390625 6.359375 C-0.47175781 7.14828125 -0.94742188 7.9371875 -1.4375 8.75 C-1.91058594 9.54921875 -2.38367188 10.3484375 -2.87109375 11.171875 C-3.24363281 11.77515625 -3.61617187 12.3784375 -4 13 C-4.66 13 -5.32 13 -6 13 C-3.10933941 3.40546697 -3.10933941 3.40546697 0 0 Z " fill="#A9785C" transform="translate(132,176)"/>
<path d="M0 0 C0.66 0.33 1.32 0.66 2 1 C0.71451591 2.33929505 -0.57858155 3.67128643 -1.875 5 C-2.59429687 5.7425 -3.31359375 6.485 -4.0546875 7.25 C-6 9 -6 9 -8 9 C-8 9.99 -8 10.98 -8 12 C-8.66 12 -9.32 12 -10 12 C-8.62968895 6.34746692 -4.32310587 3.4886459 0 0 Z " fill="#391B01" transform="translate(365,97)"/>
<path d="M0 0 C-0.33 0.99 -0.66 1.98 -1 3 C-4.3 3.33 -7.6 3.66 -11 4 C-10.67 3.01 -10.34 2.02 -10 1 C-6.52674819 -0.1577506 -3.63932552 -0.06866652 0 0 Z " fill="#E28B2F" transform="translate(504,40)"/>
<path d="M0 0 C0.33 0 0.66 0 1 0 C1.40368295 6.45892714 0.5915262 11.06108578 -2 17 C-3.44715727 13.12813552 -2.5441918 10.1767672 -1.5625 6.25 C-1.27503906 5.07953125 -0.98757812 3.9090625 -0.69140625 2.703125 C-0.46324219 1.81109375 -0.23507813 0.9190625 0 0 Z " fill="#19728C" transform="translate(124,289)"/>
<path d="M0 0 C3.465 1.485 3.465 1.485 7 3 C7 3.66 7 4.32 7 5 C6.030625 5.268125 5.06125 5.53625 4.0625 5.8125 C3.051875 6.204375 2.04125 6.59625 1 7 C0.67 7.99 0.34 8.98 0 10 C-0.33 10 -0.66 10 -1 10 C-1 8.35 -1 6.7 -1 5 C0.65 5 2.3 5 4 5 C4 4.34 4 3.68 4 3 C2.68 2.67 1.36 2.34 0 2 C0 1.34 0 0.68 0 0 Z " fill="#C27321" transform="translate(398,57)"/>
<path d="M0 0 C1.31052767 4.30422506 0.45785552 7.9370534 -0.4375 12.25 C-0.58509766 12.99507813 -0.73269531 13.74015625 -0.88476562 14.5078125 C-1.2488694 16.34007665 -1.62341409 18.17026053 -2 20 C-2.33 20 -2.66 20 -3 20 C-3.02689216 18.52093108 -3.04634621 17.04172517 -3.0625 15.5625 C-3.07410156 14.73878906 -3.08570313 13.91507812 -3.09765625 13.06640625 C-3 11 -3 11 -2 10 C-1.6068352 8.32115762 -1.25914548 6.63149955 -0.9375 4.9375 C-0.76089844 4.01839844 -0.58429688 3.09929687 -0.40234375 2.15234375 C-0.26957031 1.44207031 -0.13679687 0.73179687 0 0 Z " fill="#02557C" transform="translate(170,333)"/>
<path d="M0 0 C0.66 0 1.32 0 2 0 C2 1.32 2 2.64 2 4 C2.66 4 3.32 4 4 4 C5.32 7.63 6.64 11.26 8 15 C5 14 5 14 3.61328125 11.34765625 C3.18402344 10.26355469 2.75476562 9.17945313 2.3125 8.0625 C1.87550781 6.98097656 1.43851563 5.89945312 0.98828125 4.78515625 C0 2 0 2 0 0 Z " fill="#074265" transform="translate(52,275)"/>
<path d="M0 0 C1.36523593 3.10280894 0.89965502 4.30631624 -0.1875 7.625 C-1.94781917 10.90283569 -2.5458087 11.9280096 -6 13 C-6 12.34 -6 11.68 -6 11 C-5.34 11 -4.68 11 -4 11 C-3.896875 10.484375 -3.79375 9.96875 -3.6875 9.4375 C-2.75736134 6.13973565 -1.38604488 3.13366668 0 0 Z " fill="#CE611B" transform="translate(293,358)"/>
<path d="M0 0 C0.99 0.33 1.98 0.66 3 1 C3.1875 3.875 3.1875 3.875 3 7 C2.01 7.66 1.02 8.32 0 9 C-0.66 7.02 -1.32 5.04 -2 3 C-1.34 3 -0.68 3 0 3 C0 2.01 0 1.02 0 0 Z " fill="#066FA9" transform="translate(51,261)"/>
<path d="M0 0 C1.5 1.3125 1.5 1.3125 3 3 C3 3.99 3 4.98 3 6 C3.66 6 4.32 6 5 6 C5 6.66 5 7.32 5 8 C6.32 8 7.64 8 9 8 C9 8.66 9 9.32 9 10 C8.34 10 7.68 10 7 10 C6.67 10.66 6.34 11.32 6 12 C2.28930302 8.00386479 0.40208382 5.62917348 0 0 Z " fill="#B14818" transform="translate(239,245)"/>
<path d="M0 0 C0.99 0 1.98 0 3 0 C2.34 2.97 1.68 5.94 1 9 C0.34 9 -0.32 9 -1 9 C-1.09765625 2.84765625 -1.09765625 2.84765625 -1 1 C-0.67 0.67 -0.34 0.34 0 0 Z " fill="#0D7BAE" transform="translate(106,221)"/>
<path d="M0 0 C0.375 2.25 0.375 2.25 0 5 C-3 7.3125 -3 7.3125 -6 9 C-3.83333333 0 -3.83333333 0 0 0 Z " fill="#23A9CD" transform="translate(377,207)"/>
<path d="M0 0 C0.33 0.99 0.66 1.98 1 3 C-1.25 6.1875 -1.25 6.1875 -4 9 C-4.99 9 -5.98 9 -7 9 C-5.44499019 5.18315774 -2.96404505 2.80804268 0 0 Z " fill="#D07727" transform="translate(304,196)"/>
<path d="M0 0 C5.75 1.875 5.75 1.875 8 3 C8 3.66 8 4.32 8 5 C9.65 5.33 11.3 5.66 13 6 C13 6.33 13 6.66 13 7 C9.93606987 7.25532751 8.36766788 7.21861333 5.6875 5.625 C5.130625 5.08875 4.57375 4.5525 4 4 C4 3.34 4 2.68 4 2 C2.68 1.67 1.36 1.34 0 1 C0 0.67 0 0.34 0 0 Z " fill="#B8995F" transform="translate(309,130)"/>
<path d="M0 0 C2.97 0.33 5.94 0.66 9 1 C9 2.65 9 4.3 9 6 C8.01 6 7.02 6 6 6 C5.7525 5.360625 5.505 4.72125 5.25 4.0625 C4.18437567 1.81258459 4.18437567 1.81258459 1.875 1.25 C0.946875 1.12625 0.946875 1.12625 0 1 C0 0.67 0 0.34 0 0 Z " fill="#F09130" transform="translate(270,119)"/>
<path d="M0 0 C0.99 0 1.98 0 3 0 C3 0.66 3 1.32 3 2 C4.98 1.67 6.96 1.34 9 1 C8.34 2.32 7.68 3.64 7 5 C4.69 4.34 2.38 3.68 0 3 C0 2.01 0 1.02 0 0 Z " fill="#21ADD3" transform="translate(261,111)"/>
<path d="M0 0 C-2.88087546 2.40072955 -5.56404834 4.47291037 -9 6 C-8.49396008 3.83125748 -8.00016187 2.00032373 -7 0 C-4.0262656 -1.09036928 -3.11592499 -1.03864166 0 0 Z " fill="#FB921F" transform="translate(498,44)"/>
<path d="M0 0 C0 0.66 0 1.32 0 2 C-0.66 2 -1.32 2 -2 2 C-2.4021875 3.1446875 -2.4021875 3.1446875 -2.8125 4.3125 C-3.94424112 6.87380884 -4.91223401 8.19692938 -7 10 C-7.33 9.34 -7.66 8.68 -8 8 C-7.34 8 -6.68 8 -6 8 C-6.2475 7.4225 -6.495 6.845 -6.75 6.25 C-7 4 -7 4 -5.25 1.75 C-3 0 -3 0 0 0 Z " fill="#1889B3" transform="translate(373,380)"/>
<path d="M0 0 C2.1875 0.3125 2.1875 0.3125 4 1 C4 3.31 4 5.62 4 8 C3.5875 7.360625 3.175 6.72125 2.75 6.0625 C0.82189513 3.79009069 -0.11424181 3.39803561 -3 3 C-1.75 1.4375 -1.75 1.4375 0 0 Z " fill="#135A81" transform="translate(48,357)"/>
<path d="M0 0 C0 3.7794561 -1.04679411 5.79116175 -3 9 C-5.109375 9.6796875 -5.109375 9.6796875 -7 10 C-6.02223933 8.51990357 -5.0427506 7.04094856 -4.0625 5.5625 C-3.51722656 4.73878906 -2.97195313 3.91507812 -2.41015625 3.06640625 C-1 1 -1 1 0 0 Z " fill="#65787C" transform="translate(316,404)"/>
<path d="M0 0 C0.66 0 1.32 0 2 0 C1.34 3.63 0.68 7.26 0 11 C-2 8 -2 8 -1.6875 4.375 C-1 1 -1 1 0 0 Z " fill="#0A7DAD" transform="translate(164,354)"/>
<path d="M0 0 C0.66 0.33 1.32 0.66 2 1 C1.01 1 0.02 1 -1 1 C-0.67 0.67 -0.34 0.34 0 0 Z M-4 4 C-2.35 4.33 -0.7 4.66 1 5 C0.01 6.485 0.01 6.485 -1 8 C-2.65 7.67 -4.3 7.34 -6 7 C-5.34 6.01 -4.68 5.02 -4 4 Z " fill="#229CC7" transform="translate(74,278)"/>
<path d="M0 0 C0.99 0.33 1.98 0.66 3 1 C2.74438677 3.3431213 2.40729228 5.67843403 2 8 C1.01 8.495 1.01 8.495 0 9 C-1.125 7.3125 -1.125 7.3125 -2 5 C-1.125 2.25 -1.125 2.25 0 0 Z " fill="#0C7DB3" transform="translate(69,216)"/>
<path d="M0 0 C0.99 0.33 1.98 0.66 3 1 C1.02 3.31 -0.96 5.62 -3 8 C-3.99 7.34 -4.98 6.68 -6 6 C-4 4 -2 2 0 0 Z " fill="#E8611A" transform="translate(448,93)"/>
<path d="M0 0 C1.65 0 3.3 0 5 0 C5 0.99 5 1.98 5 3 C5.99 3.33 6.98 3.66 8 4 C4.79937313 5.60031344 2.27728194 4.03173691 -1 3 C-0.67 2.01 -0.34 1.02 0 0 Z " fill="#D87218" transform="translate(322,91)"/>
<path d="M0 0 C0.33 0.99 0.66 1.98 1 3 C-0.28788008 3.53012738 -1.58046678 4.0488329 -2.875 4.5625 C-3.95394531 4.99755859 -3.95394531 4.99755859 -5.0546875 5.44140625 C-7 6 -7 6 -9 5 C-6.03 3.35 -3.06 1.7 0 0 Z " fill="#0671A5" transform="translate(271,459)"/>
<path d="M0 0 C0.66 0.66 1.32 1.32 2 2 C0.02 4.31 -1.96 6.62 -4 9 C-4.33 8.01 -4.66 7.02 -5 6 C-3.59554165 3.7363436 -1.8032087 1.9791315 0 0 Z " fill="#096D9F" transform="translate(141,402)"/>
<path d="M0 0 C0 3 0 3 -2 6 C-3.32 5.67 -4.64 5.34 -6 5 C-5.25 3.0625 -5.25 3.0625 -4 1 C-1.875 0.25 -1.875 0.25 0 0 Z " fill="#096EA1" transform="translate(27,373)"/>
<path d="M0 0 C0.66 0.33 1.32 0.66 2 1 C1.25 2.9375 1.25 2.9375 0 5 C-2.125 5.75 -2.125 5.75 -4 6 C-4 6.99 -4 7.98 -4 9 C-4.66 9 -5.32 9 -6 9 C-4.68775452 5.06326356 -3.08089673 2.77280706 0 0 Z " fill="#C05F20" transform="translate(247,327)"/>
<path d="M0 0 C0 0.66 0 1.32 0 2 C0.66 2.33 1.32 2.66 2 3 C-5.75 2.25 -5.75 2.25 -8 0 C-4.71023192 -1.09658936 -3.28696233 -0.79953138 0 0 Z " fill="#29B2D5" transform="translate(302,122)"/>
<path d="M0 0 C1.4370809 -0.05422947 2.87475462 -0.09289723 4.3125 -0.125 C5.11300781 -0.14820313 5.91351563 -0.17140625 6.73828125 -0.1953125 C9 0 9 0 12 2 C10.56589632 2.24954005 9.12739928 2.47392642 7.6875 2.6875 C6.88699219 2.81511719 6.08648437 2.94273437 5.26171875 3.07421875 C3 3 3 3 1.20703125 1.51953125 C0.80871094 1.01808594 0.41039062 0.51664062 0 0 Z " fill="#336888" transform="translate(159,456)"/>
<path d="M0 0 C0.66 0.99 1.32 1.98 2 3 C-1.37817425 3.84454356 -3.67465243 4.10844919 -7 3 C-7 2.34 -7 1.68 -7 1 C-4.46578263 -0.26710868 -2.80561762 -0.28056176 0 0 Z " fill="#046C9F" transform="translate(106,427)"/>
<path d="M0 0 C0.33 0 0.66 0 1 0 C1.05447047 1.41623216 1.09300508 2.83308191 1.125 4.25 C1.14820313 5.03890625 1.17140625 5.8278125 1.1953125 6.640625 C0.9828378 9.20731941 0.28654105 10.7916067 -1 13 C-1.33 13 -1.66 13 -2 13 C-1.48041715 8.62065881 -0.94324258 4.31196609 0 0 Z " fill="#2880AA" transform="translate(346,344)"/>
<path d="M0 0 C0 0.99 0 1.98 0 3 C-0.66 3 -1.32 3 -2 3 C-1.67 3.99 -1.34 4.98 -1 6 C-3.31 5.34 -5.62 4.68 -8 4 C-5.33333333 2.66666667 -2.66666667 1.33333333 0 0 Z " fill="#B86F2A" transform="translate(435,149)"/>
<path d="M0 0 C7.50769231 0.61538462 7.50769231 0.61538462 10 2.5625 C10.33 3.036875 10.66 3.51125 11 4 C3.49230769 3.38461538 3.49230769 3.38461538 1 1.4375 C0.67 0.963125 0.34 0.48875 0 0 Z " fill="#DC9748" transform="translate(298,127)"/>
<path d="M0 0 C1.65 0.99 3.3 1.98 5 3 C5.33 2.34 5.66 1.68 6 1 C5.67 2.98 5.34 4.96 5 7 C3.0625 6.3125 3.0625 6.3125 1 5 C0.25 2.375 0.25 2.375 0 0 Z " fill="#AA6720" transform="translate(391,66)"/>
<path d="M0 0 C-0.66 1.32 -1.32 2.64 -2 4 C-4.97 3.505 -4.97 3.505 -8 3 C-6 0 -6 0 -4 -0.75 C-2 -1 -2 -1 0 0 Z " fill="#1083B4" transform="translate(51,361)"/>
<path d="M0 0 C0.66 0.33 1.32 0.66 2 1 C-0.31 3.31 -2.62 5.62 -5 8 C-5.99 7.67 -6.98 7.34 -8 7 C-5.36 4.69 -2.72 2.38 0 0 Z " fill="#2AAAD0" transform="translate(118,242)"/>
<path d="M0 0 C0.33 0.99 0.66 1.98 1 3 C-0.65 4.65 -2.3 6.3 -4 8 C-4.66 7.67 -5.32 7.34 -6 7 C-4.02 4.69 -2.04 2.38 0 0 Z " fill="#B76520" transform="translate(214,195)"/>
<path d="M0 0 C0.66 0.33 1.32 0.66 2 1 C1.67 1.66 1.34 2.32 1 3 C2.65 3 4.3 3 6 3 C6 3.99 6 4.98 6 6 C3.625 5.75 3.625 5.75 1 5 C-0.3125 2.9375 -0.3125 2.9375 -1 1 C-0.67 0.67 -0.34 0.34 0 0 Z " fill="#A34A28" transform="translate(129,437)"/>
<path d="M0 0 C0.625 1.8125 0.625 1.8125 1 4 C0.01 5.485 0.01 5.485 -1 7 C-1.66 7 -2.32 7 -3 7 C-2.625 4.0625 -2.625 4.0625 -2 1 C-1.34 0.67 -0.68 0.34 0 0 Z " fill="#1DA9CC" transform="translate(189,221)"/>
<path d="M0 0 C2.64 0 5.28 0 8 0 C5.23776722 2.76223278 2.79293383 2.57856291 -1 3 C-0.67 2.01 -0.34 1.02 0 0 Z " fill="#E26323" transform="translate(128,207)"/>
<path d="M0 0 C0.66 0 1.32 0 2 0 C1.56179109 4.55737263 1.14958831 7.57653445 -2 11 C-2.19622241 6.78121808 -1.80230168 3.82989106 0 0 Z " fill="#BC6F49" transform="translate(122,192)"/>
<path d="M0 0 C3.465 1.485 3.465 1.485 7 3 C5 5 5 5 1.875 5.125 C0.451875 5.063125 0.451875 5.063125 -1 5 C-0.34 4.34 0.32 3.68 1 3 C0.67 2.01 0.34 1.02 0 0 Z " fill="#19A3C6" transform="translate(292,117)"/>
<path d="M0 0 C1.21236328 0.04060547 1.21236328 0.04060547 2.44921875 0.08203125 C3.06410156 0.11683594 3.67898437 0.15164062 4.3125 0.1875 C0.27957255 2.4219598 -3.13717434 2.73246743 -7.6875 3.1875 C-5.26849268 0.20484049 -3.789448 -0.16475861 0 0 Z " fill="#4B92A4" transform="translate(225.6875,115.8125)"/>
<path d="M0 0 C2.97 0.99 5.94 1.98 9 3 C5.8035914 4.06546953 3.34252724 4.07427838 0 4 C0 2.68 0 1.36 0 0 Z " fill="#0F94B3" transform="translate(282,113)"/>
<path d="M0 0 C3.48539917 0.64544429 6.02819057 2.10134397 9 4 C7.3125 4.8125 7.3125 4.8125 5 5 C2.25 2.5625 2.25 2.5625 0 0 Z " fill="#D6643A" transform="translate(134,441)"/>
<path d="M0 0 C0.66 0.33 1.32 0.66 2 1 C-0.83430453 4.2542015 -2.68607774 5.5206753 -7 6 C-4.74259377 3.66475218 -2.7194239 1.81294927 0 0 Z " fill="#B04C1D" transform="translate(138,431)"/>
<path d="M0 0 C1.32 0.33 2.64 0.66 4 1 C1.69 2.65 -0.62 4.3 -3 6 C-3 5.01 -3 4.02 -3 3 C-2.34 3 -1.68 3 -1 3 C-0.67 2.01 -0.34 1.02 0 0 Z " fill="#0C72A0" transform="translate(328,429)"/>
<path d="M0 0 C0.66 0.33 1.32 0.66 2 1 C2 1.66 2 2.32 2 3 C-3.41538462 6.07692308 -3.41538462 6.07692308 -6.375 5.6875 C-6.91125 5.460625 -7.4475 5.23375 -8 5 C-7.05125 4.54625 -6.1025 4.0925 -5.125 3.625 C-1.99686321 2.19761746 -1.99686321 2.19761746 0 0 Z " fill="#035078" transform="translate(101,429)"/>
<path d="M0 0 C0.66 0 1.32 0 2 0 C0.50902342 3.7952131 -1.75700849 5.61042731 -5 8 C-4.67 6.68 -4.34 5.36 -4 4 C-3.34 4 -2.68 4 -2 4 C-2 3.34 -2 2.68 -2 2 C-1.34 2 -0.68 2 0 2 C0 1.34 0 0.68 0 0 Z " fill="#DB7435" transform="translate(301,418)"/>
<path d="M0 0 C0 3 0 3 -2.375 5.6875 C-5 8 -5 8 -7 8 C-5.61918777 3.8575633 -3.40174442 2.67796901 0 0 Z " fill="#1784B6" transform="translate(330,412)"/>
<path d="M0 0 C0.33 0 0.66 0 1 0 C1.125 5.75 1.125 5.75 0 8 C-0.66 8 -1.32 8 -2 8 C-1.125 1.125 -1.125 1.125 0 0 Z " fill="#2EAFD7" transform="translate(392,319)"/>
<path d="M0 0 C-2.29576678 2.29576678 -3.90346249 3.0638375 -7 4 C-9.8125 3.625 -9.8125 3.625 -12 3 C-12 2.67 -12 2.34 -12 2 C-7.82262526 0.40861915 -4.46839215 -0.21278058 0 0 Z " fill="#EF8F32" transform="translate(312,309)"/>
<path d="M0 0 C-0.33 0.66 -0.66 1.32 -1 2 C-3.4375 2.75 -3.4375 2.75 -6 3 C-6.66 2.34 -7.32 1.68 -8 1 C-3.375 -1.125 -3.375 -1.125 0 0 Z " fill="#199EC4" transform="translate(101,276)"/>
<path d="M0 0 C0.99 0 1.98 0 3 0 C3.33 2.31 3.66 4.62 4 7 C2 5.75 2 5.75 0 4 C0 2.68 0 1.36 0 0 Z " fill="#21AFD5" transform="translate(379,209)"/>
<path d="M0 0 C2.125 0.9375 2.125 0.9375 4 2 C2.75579353 2.5345256 1.50429064 3.05208611 0.25 3.5625 C-0.44609375 3.85253906 -1.1421875 4.14257812 -1.859375 4.44140625 C-4.30012784 5.07831803 -5.6403655 4.80248831 -8 4 C-6.02 3.67 -4.04 3.34 -2 3 C-2 2.34 -2 1.68 -2 1 C-1.34 0.67 -0.68 0.34 0 0 Z " fill="#B04C1B" transform="translate(123,209)"/>
<path d="M0 0 C3.40312738 1.05875074 6.01353231 2.00902154 9 4 C9 4.66 9 5.32 9 6 C8.01 6 7.02 6 6 6 C6 5.34 6 4.68 6 4 C5.195625 3.71125 4.39125 3.4225 3.5625 3.125 C1 2 1 2 0 0 Z " fill="#D4974A" transform="translate(322,138)"/>
<path d="M0 0 C0.33 0 0.66 0 1 0 C1.66 2.97 2.32 5.94 3 9 C2.01 9.33 1.02 9.66 0 10 C-1.125 3.375 -1.125 3.375 0 0 Z " fill="#0E7BAD" transform="translate(51,365)"/>
<path d="M0 0 C1.65 0 3.3 0 5 0 C4.67 0.99 4.34 1.98 4 3 C1.9375 3.6875 1.9375 3.6875 0 4 C0 2.68 0 1.36 0 0 Z " fill="#F8932F" transform="translate(316,307)"/>
<path d="M0 0 C0.66 0.33 1.32 0.66 2 1 C2 1.99 2 2.98 2 4 C0.02 4.99 0.02 4.99 -2 6 C-2 2 -2 2 0 0 Z " fill="#1576A7" transform="translate(64,230)"/>
<path d="M0 0 C0.33 0.66 0.66 1.32 1 2 C0.06694014 4.71435596 -0.62673377 5.78043163 -3.125 7.25 C-3.74375 7.4975 -4.3625 7.745 -5 8 C-3.8141763 4.62496331 -2.72426311 2.35277269 0 0 Z " fill="#1885A3" transform="translate(371,212)"/>
<path d="M0 0 C0.33 0.66 0.66 1.32 1 2 C-0.32 3.65 -1.64 5.3 -3 7 C-3.99 6.67 -4.98 6.34 -6 6 C-4.02 4.02 -2.04 2.04 0 0 Z " fill="#D17723" transform="translate(315,184)"/>
<path d="M0 0 C3.96 1.98 3.96 1.98 8 4 C4 5 4 5 1.75 4.0625 C1.1725 3.711875 0.595 3.36125 0 3 C0 2.01 0 1.02 0 0 Z " fill="#209AB2" transform="translate(310,127)"/>
</svg>
