<?xml version="1.0" encoding="UTF-8"?>
<svg id="Layer_1" xmlns="http://www.w3.org/2000/svg" version="1.1" viewBox="0 0 1251.51 1211.52">
  <!-- Generator: Adobe Illustrator 29.6.1, SVG Export Plug-In . SVG Version: 2.1.1 Build 9)  -->
  <defs>
    <style>
      .st0 {
        fill: #359abb;
      }

      .st1 {
        fill: #f47528;
      }

      .st2 {
        fill: #ef8d28;
      }

      .st3 {
        fill: #5cbdd5;
      }

      .st4 {
        fill: #369abb;
      }
    </style>
  </defs>
  <path class="st0" d="M36.81-58.61l-1,1c-.75-.61-1.65-.97-2-2,.43.22,1.71.39,3,1Z"/>
  <path class="st2" d="M58.79-100.57c.31-.35.69-.65,1-1l-1,1Z"/>
  <g>
    <path class="st2" d="M896.84,199.83l5.71-15.44,5.71,15.44c2.11,5.71,6.61,10.21,12.32,12.32l15.44,5.71-15.44,5.71c-5.71,2.11-10.21,6.61-12.32,12.32l-5.71,15.44-5.71-15.44c-2.11-5.71-6.61-10.21-12.32-12.32l-15.44-5.71,15.44-5.71c5.71-2.11,10.21-6.61,12.32-12.32Z"/>
    <path class="st2" d="M990.69,383.29l5.71-15.44,5.71,15.44c2.11,5.71,6.61,10.21,12.32,12.32l15.44,5.71-15.44,5.71c-5.71,2.11-10.21,6.61-12.32,12.32l-5.71,15.44-5.71-15.44c-2.11-5.71-6.61-10.21-12.32-12.32l-15.44-5.71,15.44-5.71c5.71-2.11,10.21-6.61,12.32-12.32Z"/>
    <path class="st2" d="M798.28,236.06l13.43-36.31,13.43,36.31c4.97,13.42,15.55,24.01,28.98,28.98l36.31,13.43-36.31,13.43c-13.42,4.97-24.01,15.55-28.98,28.98l-13.43,36.31-13.43-36.31c-4.97-13.42-15.55-24.01-28.98-28.98l-36.31-13.43,36.31-13.43c13.42-4.97,24.01-15.55,28.98-28.98Z"/>
    <path class="st3" d="M779.89,384.29c-.93-.58-1.89-1.18-2.86-1.79-.02-.01-.03-.02-.04-.02-10.74-6.7-23.81-15.16-35.48-21.69-.7-.4-1.39-.78-2.07-1.15-1.06-.58-2.1-1.14-3.12-1.67-2.58-1.35-5.05-2.57-7.37-3.61-1.41-.63-2.82-1.25-4.23-1.86-1.07-.46-2.14-.92-3.21-1.36-1.05-.44-2.09-.87-3.13-1.29-.34-.13-.67-.27-1.01-.41-1.1-.44-2.21-.87-3.31-1.3-1.07-.41-2.13-.82-3.2-1.22-1.04-.39-2.07-.77-3.11-1.14-.7-.26-1.4-.51-2.1-.76-2.28-.81-4.55-1.58-6.83-2.33-1.13-.37-2.27-.74-3.4-1.09-1.18-.37-2.35-.73-3.52-1.09-.9-.27-1.8-.54-2.7-.8-.83-.24-1.67-.48-2.5-.71-.03-.01-.07-.02-.1-.03-.07-.02-.14-.04-.21-.06-1.35-.38-2.69-.75-4.04-1.1-.3-.08-.6-.16-.9-.24-.59-.15-1.17-.3-1.76-.45-1.07-.27-2.13-.54-3.2-.8-1.14-.28-2.29-.55-3.44-.81-.29-.07-.58-.14-.87-.2-.95-.22-1.9-.43-2.85-.63-1.24-.27-2.48-.53-3.72-.78-1.01-.21-2.02-.4-3.03-.6-.24-.04-.47-.09-.71-.13-.96-.18-1.91-.36-2.87-.53-.4-.07-.81-.14-1.21-.21-.26-.05-.53-.09-.79-.14-.8-.13-1.61-.27-2.41-.4-2.13-.34-4.25-.66-6.37-.95-.79-.11-1.59-.22-2.38-.32-1.5-.2-2.99-.38-4.48-.55-1.15-.13-2.29-.25-3.43-.36-1.11-.12-2.23-.22-3.35-.32-.41-.04-.82-.07-1.22-.11-.6-.05-1.21-.1-1.81-.14-1.8-.14-3.6-.27-5.39-.37-.57-.03-1.15-.06-1.72-.09-.17-.01-.35-.02-.52-.03-.89-.04-1.78-.08-2.67-.12-1.22-.05-2.44-.09-3.66-.12-.98-.03-1.95-.05-2.93-.06-.54-.01-1.08-.02-1.63-.02-119.63-1.2-227.46,76.18-271.06,197.89-3.1,8.63-7.22,17.05-9.75,25.97-.29.99-.55,1.98-.79,2.98-.35,1.46-1.55,4.59,1.01,4.04l50.73-14.52h.03l118.63-33.95-48.92,277.05c-15.63,73.09-48.33,136.05-119.26,167.6-69.67,30.99-168.46,17.13-199.5-60.65-1.92-4.79-8.67-24.89-6.47-28.52l87.12-57.79,3.28-.22c2.06,34.76,17.48,67.06,57.44,64,29.95-2.31,50.54-26.94,58.97-53.97,13.91-59.75,23.49-120.68,34.44-181.01l-2.28.19-134.94,39.68-51.59-120.87,57.01,6.54c32.57-123.19,134.78-228.17,260.48-255.26,89.96-19.38,204.16,8.25,275.09,70.25,2.45,2.13,4.85,4.31,7.19,6.53Z"/>
    <path class="st2" d="M1122.21,177.72c-15.89,19.24-39.16,38.7-56.98,56.97-96.68,99.17-183.98,201-266.13,312.61-24.21,32.89-47.07,68.87-72.09,100.84-35.08,44.79-72.9,39.62-104.13-5.61-21.94-31.77-39.76-68.87-62.15-99.79-9.87-13.62-21.87-24.31-38.94-27.53-.42-.47-.33-1.39.11-2.63,2.22-6.24,13.56-20.37,15.85-22.89,19.88-21.86,46.68-34.7,75.93-22.95,27.58,11.07,38.74,41.11,57.45,61.5,1.93,2.1,5.49,6.96,8.23,5.27l50.71-58.3c98.94-104.49,207.23-206.31,335.17-274.51,6.05-3.23,56.63-28.76,58.96-26.48.43,1.89-1.06,2.38-1.99,3.5Z"/>
    <path class="st2" d="M459.65,1010.93c-27.49-6.33-50.53-19.54-75.72-26.71-5.87-4.21-11.11-8.22-14.98-11.49,13.55-8.48,26.67-17.91,38.39-28.81,6.87-6.39,13.26-13.28,18.96-20.79,5.79-7.62,10.27-16.52,16.26-23.79,2.32-.59,13.12,6.93,16.25,8.43,83.73,40.03,176.63,6.4,226.24-68.63,2.07-3.14,16.33-26.2,14.56-27.91l-122.87,27.98c5.6-29.62,4.49-61.66,26.46-85,10.76-11.44,25.51-17.44,40.26-21.7,50.34-14.55,106.69-26.85,158.04-38.8,3.63-.85,7.32-1.82,11.06-2.26.98-.12,1.96-.2,2.94-.23,7.74,192.53-157.72,365.31-355.85,319.71Z"/>
    <path class="st3" d="M746.3,977.29c-93.21,63.76-216.64,80.39-320.77,32.63-10.81-4.96-27.89-15.86-41.6-25.7-5.87-4.21-11.11-8.22-14.98-11.49,12.24,6.69,27.67,14.54,43.5,21.48,15.19,6.66,30.75,12.46,44.21,15.56,1.36.31,2.72.62,4.08.91.02.01.04.01.06.01,195.81,42.18,358.61-128.6,351.76-319.24-.01-.46-.03-.93-.05-1.39-.98-24.53-3.1-46.96-7.3-71.18-1.69-9.69-5-19.34-5.46-29.06,11.79-16.01,23.41-32.15,35.04-48.28,9.57-13.3,19.16-26.58,28.86-39.79.8-1.1,3.05-5.22,4.3-4.68,1.59.7,12.76,27.83,14.24,31.75,61.78,162.85,7.95,350.06-135.89,448.47Z"/>
    <path class="st2" d="M728.95,354.36c14.83,6.65,36.05,20.65,50.94,29.93l-32.24,33.94-40.75,42.85c-1.44.41-2.48-.37-3.65-.99-5.57-2.98-14.6-11.89-20.89-16.1-90.65-60.63-208.64-38.14-276.97,44.21-5.75,6.93-14.27,22.77-21.68,25.34-1.78.62-3.09,1.08-4.55,1.6-4.6,1.61-9.3,3.03-14.04,4.39-7.73,2.22-15.56,4.27-23.15,6.69,57.46-160.38,226.42-243.79,386.98-171.86Z"/>
    <path class="st1" d="M1122.21,177.72c-15.89,19.24-39.16,38.7-56.98,56.97-96.68,99.17-183.98,201-266.13,312.61-24.21,32.89-47.07,68.87-72.09,100.84-35.08,44.79-72.9,39.62-104.13-5.61-21.94-31.77-39.76-68.87-62.15-99.79-9.87-13.62-21.87-24.31-38.94-27.53-.42-.47-.33-1.39.11-2.63,10.99-9.01,29.38-17.24,54.9-5.72,44.22,19.97,92.71,97.7,92.71,97.7,0,0,389.42-421.34,452.7-426.84Z"/>
    <path class="st1" d="M772.55,739.83s-37.43,205.76-202.19,230.25c-103.58,15.4-146.46-10.95-163.02-26.16,6.87-6.39,13.26-13.28,18.96-20.79,5.79-7.62,10.27-16.52,16.26-23.79,2.32-.59,13.12,6.93,16.25,8.43,83.73,40.03,176.63,6.4,226.24-68.63,2.07-3.14,16.33-26.2,14.56-27.91l-122.87,27.98,30.82-39.16c16.08-20.44,38.9-34.51,64.38-39.71l100.61-20.51Z"/>
    <path class="st0" d="M501.83,510.74l-48.92,277.05c-15.63,73.09-48.33,136.05-119.26,167.6-69.67,30.99-168.46,17.13-199.5-60.65-1.92-4.79-8.67-24.89-6.47-28.52,30,82.93,107.01,101.96,169.74,68.94,62.73-33.01,108.95-120.5,125.46-247.61,16.5-127.11,78.95-176.81,78.95-176.81Z"/>
    <path class="st1" d="M747.65,418.23l-40.75,42.85c-1.44.41-2.48-.37-3.65-.99-5.57-2.98-14.6-11.89-20.89-16.1-90.65-60.63-208.64-38.14-276.97,44.21-5.75,6.93-14.27,22.77-21.68,25.34-1.78.62-3.09,1.08-4.55,1.6-4.6,1.61-9.3,3.03-14.04,4.39l.22-1.67s118.34-250.68,382.06-100.64l.25,1.01Z"/>
    <path class="st4" d="M368.95,972.73c12.24,6.69,27.67,14.54,43.5,21.48-14.79-6.18-29.32-13.34-43.5-21.48Z"/>
    <path class="st0" d="M713.94,978.98c-73.88,45.27-165.58,55.07-253.14,31.71,196.29,42.28,359.4-129.43,351.71-320.63-.98-24.53-3.1-46.96-7.3-71.18-1.69-9.69-5-19.34-5.46-29.06,11.79-16.01,23.41-32.15,35.04-48.28,70.55,169.11,12.47,355.75-120.85,437.44Z"/>
    <path class="st4" d="M779.89,384.29c-.93-.58-1.89-1.18-2.86-1.79-.02-.01-.03-.02-.04-.02-10.74-6.7-23.81-15.16-35.48-21.69-.7-.4-1.39-.78-2.07-1.15-1.06-.58-2.1-1.14-3.12-1.67-2.58-1.35-5.05-2.57-7.37-3.61-1.41-.63-2.82-1.25-4.23-1.86-1.07-.46-2.14-.92-3.21-1.36-1.05-.44-2.09-.87-3.13-1.29-.34-.13-.67-.27-1.01-.41-1.1-.44-2.21-.87-3.31-1.3-1.07-.41-2.13-.82-3.2-1.22-1.04-.39-2.07-.77-3.11-1.14-.7-.26-1.4-.51-2.1-.76-2.28-.81-4.55-1.58-6.83-2.33-1.13-.37-2.27-.74-3.4-1.09-1.18-.37-2.35-.73-3.52-1.09-.9-.27-1.8-.54-2.7-.8-.83-.24-1.67-.48-2.5-.71-.03-.01-.07-.02-.1-.03-.07-.02-.14-.04-.21-.06-1.35-.38-2.69-.75-4.04-1.1-.3-.08-.6-.16-.9-.24-.59-.15-1.17-.3-1.76-.45-1.07-.27-2.13-.54-3.2-.8-1.14-.28-2.29-.55-3.44-.81-.29-.07-.58-.14-.87-.2-.95-.22-1.9-.43-2.85-.63-1.24-.27-2.48-.53-3.72-.78-1.01-.21-2.02-.4-3.03-.6-.24-.04-.47-.09-.71-.13-.96-.18-1.91-.36-2.87-.53-.4-.07-.81-.14-1.21-.21-.26-.05-.53-.09-.79-.14-.8-.13-1.61-.27-2.41-.4-2.13-.34-4.25-.66-6.37-.95-.79-.11-1.59-.22-2.38-.32-1.5-.2-2.99-.38-4.48-.55-1.15-.13-2.29-.25-3.43-.36-1.11-.12-2.23-.22-3.35-.32-.41-.04-.82-.07-1.22-.11-.6-.05-1.21-.1-1.81-.14-1.8-.14-3.6-.27-5.39-.37-.57-.03-1.15-.06-1.72-.09-.17-.01-.35-.02-.52-.03-.89-.04-1.78-.08-2.67-.12-1.22-.05-2.44-.09-3.66-.12-.98-.03-1.95-.05-2.93-.06-.54-.01-1.08-.02-1.63-.02-119.63-1.2-227.46,76.18-271.06,197.89-3.1,8.63-7.22,17.05-9.75,25.97-.29.99-.55,1.98-.79,2.98-.35,1.46-1.55,4.59,1.01,4.04l50.73-14.52-151.46,132.41c.47-17.38,45.95-206.54,194.49-305.64,112.25-74.89,228.44-65.41,346.5,6.3,2.45,2.13,4.85,4.31,7.19,6.53Z"/>
  </g>
</svg>